<svg width="41" height="37" viewBox="0 0 41 37" fill="none" xmlns="http://www.w3.org/2000/svg">
<path d="M41 32.3289C41 33.5536 40.515 34.7282 39.6516 35.5942C38.7882 36.4601 37.6172 36.9467 36.3962 36.9467C35.1752 36.9467 34.0042 36.4601 33.1408 35.5942C32.2774 34.7282 31.7924 33.5536 31.7924 32.3289C31.7924 28.5358 35.311 24.9571 35.459 24.7922C35.7104 24.5484 36.0465 24.412 36.3962 24.412C36.7459 24.412 37.082 24.5484 37.3334 24.7922C37.4814 24.9571 41 28.5358 41 32.3289ZM20.6939 19.218C20.8779 19.0341 21.0238 18.8156 21.1234 18.5751C21.223 18.3345 21.2743 18.0766 21.2743 17.8162C21.2743 17.5557 21.223 17.2978 21.1234 17.0572C21.0238 16.8167 20.8779 16.5982 20.6939 16.4144C20.3216 16.0457 19.8195 15.8391 19.2963 15.8391C18.7732 15.8391 18.2711 16.0457 17.8988 16.4144C17.5281 16.7861 17.3199 17.2904 17.3199 17.8162C17.3199 18.3419 17.5281 18.8462 17.8988 19.218C18.2694 19.5897 18.7721 19.7986 19.2963 19.7986C19.8205 19.7986 20.3233 19.5897 20.6939 19.218ZM36.8895 19.053C36.8853 18.7001 36.7437 18.3627 36.4948 18.113L18.8195 0.384321C18.5729 0.137587 18.2388 -0.000976562 17.8905 -0.000976562C17.5422 -0.000976563 17.2081 0.137587 16.9616 0.384321L10.3682 6.99754L17.1095 13.7592C18.0822 13.2312 19.2119 13.0721 20.292 13.311C21.372 13.5499 22.3302 14.1708 22.9913 15.0601C23.6524 15.9494 23.9723 17.0478 23.8923 18.1542C23.8124 19.2606 23.338 20.3012 22.556 21.0856C21.7739 21.87 20.7365 22.3458 19.6334 22.426C18.5303 22.5062 17.4352 22.1854 16.5486 21.5223C15.662 20.8592 15.0429 19.8981 14.8048 18.8148C14.5666 17.7315 14.7252 16.5984 15.2516 15.6227L8.51029 8.86111L1.16064 16.2494C0.792757 16.6172 0.500861 17.0541 0.301693 17.5352C0.102524 18.0163 0 18.5321 0 19.053C0 19.574 0.102524 20.0898 0.301693 20.5709C0.500861 21.052 0.792757 21.4889 1.16064 21.8567L15.1036 35.8417C15.8462 36.5829 16.8511 36.999 17.8988 36.999C18.9464 36.999 19.9514 36.5829 20.6939 35.8417L36.4948 19.9766C36.7427 19.733 36.8845 19.401 36.8895 19.053ZM6.0604 2.67668C5.81019 2.44928 5.48237 2.3271 5.14482 2.33544C4.80727 2.34377 4.48584 2.48199 4.24709 2.72146C4.00833 2.96094 3.87053 3.28334 3.86222 3.62191C3.85391 3.96048 3.97572 4.28928 4.20244 4.54026L8.51029 8.86111L10.3682 6.99754L6.0604 2.67668Z" fill="#B49DF0"/>
</svg>
