<svg xmlns="http://www.w3.org/2000/svg" viewBox="0 0 806.69 152.82"><defs><style>.a{fill:#231f20;stroke:#231f20;stroke-miterlimit:10;stroke-width:5px;}</style></defs><path class="a" d="M7.71,105.19h8.7a20.24,20.24,0,0,0,40.48,0c0-12-10.43-18.19-22.45-25.3C22,72.61,7.71,64.23,7.71,47.15a28.94,28.94,0,0,1,57.88,0h-8.7a20.24,20.24,0,0,0-40.48,0c0,12,10.44,18.19,22.46,25.3,12.49,7.44,26.72,15.82,26.72,32.74a28.94,28.94,0,1,1-57.88,0Z"/><path class="a" d="M114.46,18.22A28.94,28.94,0,0,0,85.53,47.15v58a28.94,28.94,0,1,0,57.87,0v-58A28.94,28.94,0,0,0,114.46,18.22Zm20.24,87a20.24,20.24,0,1,1-40.48,0v-58a20.24,20.24,0,1,1,40.48,0Z"/><path class="a" d="M161.6,18.37h8.7v85.71a21.35,21.35,0,1,0,42.7,0V18.22h8.69v85.86a30,30,0,1,1-60.09,0V18.37Z"/><polygon class="a" points="283.54 134.44 251.59 134.44 242.9 134.44 242.9 18.06 251.59 18.06 251.59 125.75 283.54 125.75 283.54 134.44"/><polygon class="a" points="376.37 134.44 376.37 27.07 374.79 27.07 349.49 134.28 337.47 134.28 312.49 27.07 310.9 27.07 310.9 134.44 302.21 134.44 302.21 18.37 319.44 18.37 343.48 121.95 367.99 18.37 385.07 18.37 385.07 134.44 376.37 134.44"/><path class="a" d="M440.75,18.22h-16l-21,116.38h8.86L417,109.77h31.16l4.27,24.83h8.85ZM418.6,101.08l13.45-74.17h1.42l13.12,74.17Z"/><path class="a" d="M477.44,105.35v-58a28.94,28.94,0,0,1,57.88,0h-8.7a20.24,20.24,0,0,0-40.48,0v58a20.24,20.24,0,1,0,40.48,0h8.7a28.94,28.94,0,0,1-57.88,0Z"/><polygon class="a" points="610.29 18.22 610.29 134.6 601.59 134.6 601.59 76.25 561.43 76.25 561.43 134.6 552.73 134.6 552.73 18.22 561.43 18.22 561.43 67.55 601.59 67.55 601.59 18.22 610.29 18.22"/><polygon class="a" points="643.51 27.07 643.51 125.75 643.51 134.44 643.51 134.6 634.65 134.6 634.65 134.44 634.65 125.75 634.65 27.07 634.65 18.37 634.65 18.22 643.51 18.22 643.51 18.37 643.51 27.07"/><polygon class="a" points="667.87 134.76 667.87 18.22 679.73 18.22 722.9 118.94 722.9 18.22 731.6 18.22 731.6 134.44 719.9 134.44 676.57 32.92 676.57 134.76 667.87 134.76"/><polygon class="a" points="762.76 26.91 762.76 67.55 791.86 67.55 791.86 76.25 762.76 76.25 762.76 125.75 798.98 125.75 798.98 134.6 754.06 134.6 754.06 18.22 798.98 18.22 798.98 26.91 762.76 26.91"/></svg>