<svg xmlns="http://www.w3.org/2000/svg" viewBox="0 0 164.56 164.25"><defs><style>.a{fill:#060606;stroke-width:0.75px;}.a,.b{stroke:#231f20;stroke-miterlimit:10;}.b{fill:none;}</style></defs><path class="a" d="M6.19,70.78a1.61,1.61,0,0,0-1.61,1.63,1.62,1.62,0,1,0,1.61-1.63Z"/><path class="a" d="M158.37,70.48A1.62,1.62,0,1,0,160,72.12,1.62,1.62,0,0,0,158.37,70.48Z"/><path class="a" d="M81.54,69.89h-.27l-1.89,0-32.58.23h-3l-21.62,0H20.87l-3,0H14.22a1.3,1.3,0,0,0-1,.45A1.68,1.68,0,0,0,13,72.8c.58.87,1.74.76,2.77.76l2.16,0c5.25,0,25.41-.12,30.66-.14.56,0,1.35,0,1.68.31s-.34.88-.75,1.2c-2.28,1.77-4.58,3.46-7.29,5.27-2.56,1.7-4.92,2.06-8,2.26-2.31.15-5.12.13-6.4.08A17.3,17.3,0,0,1,24.34,82c-1.21-.29-6.54-2.7-10.31-4.07-.31-.15-.61-.29-.92-.08-.16.11-.15.3.2.45a27.81,27.81,0,0,1,7.93,3.52c.24.17.15.49-.16.55l-4.43.85c-1.58.39-3.71.69-5.16,1.15-.29.1-.18.46.14.43,2.84-.27,7.21-1,7.21-1A13,13,0,0,1,21,83.63c.83,0,1.25-.09,1.15.24C20.38,85.17,18.91,86,19,86.38s1.44-.63,2-.93a18.38,18.38,0,0,1,7.67-1.93,22.52,22.52,0,0,1,3.54,0c.82,0,1.92.13,2.19.56.43.68-1.68,1.37-1.75,1.42s-.76.38-1.3.66a3.13,3.13,0,0,0-.32.15c-2.53,1.37-5.07,2.74-7.58,4.16a38.16,38.16,0,0,0-7.15,4.6c-.35.32-1,.64-.28.9.28.1.93-.4,1.27-.69a22.32,22.32,0,0,1,5.09-3C27.38,90,31,87.74,36.16,86c1,0,.46,1,.4,1.05-1.26,1.32-1.36,1.64-2.65,2.93a38.31,38.31,0,0,1-4.34,3.87c-2.55,2-5.87,4-8.12,6.25-.24.24-.61.49-.28.85s.76,0,1.06-.29.42-.34.57-.49c2-1.95,4.6-3.32,7-4.9.2-.14.49,0,.44.21a11.15,11.15,0,0,1-.68,2.07,41.18,41.18,0,0,1-2.69,5c-.17.26-.62.61-.12.85s.73-.21,1-.5c.07-.09.12-.2.2-.29,2.67-3.24,5.32-10.15,6.33-11.49s2.62-2.55,4-4.09c4.66-4.71,8.68-9.35,15.88-11.5,2-.6,3.82-1,6.94-1.72a26,26,0,0,1,8-.44,10.09,10.09,0,0,1,6.26,2.55c3.48,2.93,3.91,5.84,4.4,10.23h0c.12,4.71.32,9,.36,13.8v0a8.06,8.06,0,0,1-.8,3.35,19.88,19.88,0,0,1-3.6,4.56,48.52,48.52,0,0,1-11,8.42,14.82,14.82,0,0,1-4.5,1.55c-1.36.19-2.74,0-4.11.11-.16,0-.33,0-.48,0h-.08c-2.1-.2-4.19-.54-6.27-.89h0c-3.34-.3-6.43-.17-9.58-.4a17,17,0,0,1-8.79-2.8c-2.38-1.52-4.39-2.67-6.39-3.87-.41-.24-1.41-.76-1.76-.43s6.85,4.66,7.65,5.1,1.21.53,1.65,1.13c.1.14.17.33-.38.45-2.44.51-7.31-.1-8.63,0-.28,0-.39.32-.16.46a4.6,4.6,0,0,0,1.88.4c3.79.15,5.35.22,8.48.22l1.39,0c.75,0,1.11,0,1.29.22.45.39.07.64-.67.92a40.28,40.28,0,0,1-6.94,1.9c-2.43.43-5.85,0-8.25.45a.18.18,0,0,0,0,.35,29,29,0,0,0,10.13,0c3.5-.68,8.9-2.59,10.26-2.71s6.43,0,8,.15a66.08,66.08,0,0,1,7.83,1.29c.28.21.44.57-.21,1q-4.17,2.64-8.44,5.15c-4.52,2.28-8.85,4.82-14.4,5.64-.79.12-.82.63,0,.58a16.65,16.65,0,0,0,1.81-.26c1.17-.25,1.91-.53,3.65-1,.1,0,.17.08.08.13-1.26.69-2.61,1.28-3.81,2-2,1.27-6.09,3.68-5.8,4s.67,0,.95-.25c1.17-.83,2.23-1.34,3.32-2,2.77-1.64,5.47-3.05,8.33-4.52.13-.07.28.06.18.16a27,27,0,0,0-3.74,3.91c-.28.39.28.57.82,0a51.29,51.29,0,0,1,6-5.73,36.65,36.65,0,0,1,6.9-3.32c.33-.12.8-.31,1.17,0s.06.65-.13.94c-.48.79-1.22,1.54-1.68,2.33a31.85,31.85,0,0,1-6.59,7.82c-1.4,1.25-3.31,2.06-4.75,3.3-.15.14-.28.36-.21.46s.07.2.37.14a27.11,27.11,0,0,1,3.63-2.25c.25-.09.5.13.35.32-1.22,1.49-3,4.27-3.12,4.4a.21.21,0,0,0,.05.27c.07.07.39-.15.52-.29,1.72-1.76,3.1-3.68,4.73-5.49Q51.44,131.7,56,125.6a17,17,0,0,1,7-5.63c.36-.16,9.23-5.26,13.58-7.84h0c.78-.35,1.57-.71,2.37-1,1.18-.46,1.43-.34,1.44.74.09,6.67.15,13.35.22,20a3.21,3.21,0,0,1-.86,2.37A110.59,110.59,0,0,1,70,142.72,18,18,0,0,1,61.69,146c-2.45.38-4.82,1.14-7.21,1.76-.42.11-1.22.29-1,.72.16.25.84.16,1.25.09,2.17-.43,4.33-.89,6.5-1.34.38-.08,1.77-.45,1.75,0s-2,2.24-3.12,3.34-2.62,2.48-3.81,3.79c-.23.24-.51.59-.17.8s.61-.11.81-.34a46.75,46.75,0,0,1,8.47-7.26c.46-.3,1.3-.94,1.86-.59s.06,1.08-.16,1.62l-.09.21c-1.27,2.61-2.65,5.85-3.89,8.47-.29.6-1,1.74-.56,1.89.77.09,1.59-1.52,2-2.44a38,38,0,0,1,2-3.59,36.93,36.93,0,0,0,2.55-4.92A22.34,22.34,0,0,1,79.1,137.63c1.28-.65,1.55.7,1.56,2l.21,19a5.18,5.18,0,0,0,0,.88c.11.7.33.68,1.09.73a1,1,0,0,0,.44-.06,1,1,0,0,0,.43.06c.76,0,1,0,1.09-.73a6.48,6.48,0,0,0,0-.88q.09-9.53.2-19c0-1.28.28-2.63,1.56-2A22.29,22.29,0,0,1,96,148.21a36.93,36.93,0,0,0,2.55,4.92,35.86,35.86,0,0,1,2,3.59c.43.92,1.25,2.53,2,2.44.39-.15-.27-1.29-.55-1.89-1.25-2.62-2.63-5.86-3.89-8.47a2,2,0,0,1-.1-.21c-.21-.54-.78-1.22-.16-1.62s1.4.29,1.86.59a46.75,46.75,0,0,1,8.47,7.26c.21.23.4.59.81.34s.06-.56-.16-.8c-1.2-1.31-2.6-2.57-3.82-3.79s-3.09-2.94-3.11-3.34,1.36,0,1.74,0c2.17.45,4.33.91,6.51,1.34.4.07,1.09.16,1.24-.09.27-.43-.54-.61-1-.72a74.07,74.07,0,0,0-7.2-1.76,18,18,0,0,1-8.29-3.32,112,112,0,0,1-9.75-8.49,3.25,3.25,0,0,1-.86-2.37q.11-10,.22-20c0-1.08.26-1.2,1.44-.74.81.31,1.59.67,2.38,1h0c4.36,2.58,13.22,7.68,13.58,7.84a17,17,0,0,1,7,5.63q4.55,6.09,9.69,11.84c1.63,1.81,3,3.73,4.73,5.49.13.14.46.36.52.29a.21.21,0,0,0,.05-.27c-.07-.13-1.9-2.91-3.11-4.4-.16-.19.09-.41.34-.32,1.47.54,3.35,2.19,3.64,2.25s.34,0,.36-.14-.06-.32-.21-.46c-1.43-1.24-3.35-2-4.75-3.3a31.85,31.85,0,0,1-6.59-7.82c-.46-.79-1.2-1.54-1.68-2.33-.19-.29-.56-.6-.13-.94a1.18,1.18,0,0,1,1.18,0,37,37,0,0,1,6.9,3.32,52.92,52.92,0,0,1,6,5.73c.53.53,1.09.35.81,0a26.88,26.88,0,0,0-3.73-3.91c-.1-.1,0-.23.17-.16,2.86,1.47,5.56,2.88,8.34,4.52,1.08.65,2.14,1.16,3.31,2,.29.21.67.61.95.25s-3.82-2.77-5.8-4c-1.2-.77-2.55-1.36-3.81-2-.09-.05,0-.16.09-.13,1.74.49,2.47.77,3.65,1a16.28,16.28,0,0,0,1.8.26c.82.05.8-.46,0-.58-5.55-.82-9.88-3.36-14.4-5.64q-4.26-2.52-8.44-5.15c-.65-.41-.48-.77-.21-1a66.08,66.08,0,0,1,7.83-1.29c1.6-.11,6.68-.28,8-.15s6.75,2,10.26,2.71a28.91,28.91,0,0,0,10.12,0,.18.18,0,0,0,0-.35c-2.4-.43-5.82,0-8.24-.45a40.4,40.4,0,0,1-7-1.9c-.73-.28-1.11-.53-.67-.92.18-.17.55-.18,1.3-.22l1.38,0c3.13,0,4.7-.07,8.49-.22a4.55,4.55,0,0,0,1.87-.4c.23-.14.13-.44-.16-.46-1.32-.08-6.18.53-8.63,0-.54-.12-.48-.31-.38-.45.45-.6.86-.69,1.66-1.13s7.86-4.72,7.64-5.1-1.35.19-1.75.43c-2,1.2-4,2.35-6.4,3.87a17,17,0,0,1-8.78,2.8c-3.16.23-6.25.1-9.58.4h0c-2.08.35-4.16.69-6.27.89h-.08c-.15,0-.31,0-.48,0-1.37-.06-2.75.08-4.11-.11a14.82,14.82,0,0,1-4.5-1.55,48.75,48.75,0,0,1-11-8.42,19.88,19.88,0,0,1-3.6-4.56,8.06,8.06,0,0,1-.79-3.35v0c0-4.77.23-9.09.35-13.8h0c.49-4.39.92-7.3,4.4-10.23a10.11,10.11,0,0,1,6.26-2.55,26,26,0,0,1,8,.44c3.12.71,4.93,1.12,6.94,1.72,7.2,2.15,11.21,6.79,15.87,11.5,1.39,1.54,3,2.74,4,4.09s3.65,8.25,6.33,11.49c.07.09.12.2.19.29.24.29.45.75,1,.5s.05-.59-.12-.85a39.77,39.77,0,0,1-2.68-5,11.18,11.18,0,0,1-.69-2.07c-.05-.2.24-.35.44-.21,2.41,1.58,5,3,7,4.9.15.15.39.35.56.49s.86.51,1.07.29-.05-.61-.29-.85c-2.24-2.24-5.57-4.24-8.12-6.25A37.2,37.2,0,0,1,131,89.94c-1.3-1.29-1.4-1.61-2.65-2.93-.07-.06-.64-1.08.39-1.05,5.14,1.78,8.78,4.08,13.79,6.31a22.32,22.32,0,0,1,5.09,3c.35.29,1,.79,1.27.69.69-.26.07-.58-.27-.9a38.24,38.24,0,0,0-7.16-4.6c-2.5-1.42-5-2.79-7.58-4.16-.1-.06-.21-.1-.31-.15-.55-.28-1.09-.53-1.31-.66s-2.18-.74-1.75-1.42c.28-.43,1.38-.51,2.2-.56a22.39,22.39,0,0,1,3.53,0,18.47,18.47,0,0,1,7.68,1.93c.52.3,1.83,1.23,2,.93s-1.36-1.21-3.12-2.51c-.11-.33.31-.25,1.14-.24a13.18,13.18,0,0,1,2.16.22s4.36.68,7.21,1c.31,0,.43-.33.13-.43-1.45-.46-3.58-.76-5.15-1.15l-4.44-.85c-.3-.06-.4-.38-.16-.55a27.87,27.87,0,0,1,7.94-3.52c.34-.15.35-.34.19-.45-.31-.21-.61-.07-.92.08-3.76,1.37-9.1,3.78-10.31,4.07a17.19,17.19,0,0,1-3.47.52c-1.27,0-4.08.07-6.4-.08-3.1-.2-5.46-.56-8-2.26-2.72-1.81-5-3.5-7.3-5.27-.4-.32-1.21-.71-.75-1.2s1.12-.32,1.68-.31c5.25,0,25.42.1,30.67.14l2.15,0c1,0,2.19.11,2.77-.76a1.67,1.67,0,0,0-.22-2.09,1.28,1.28,0,0,0-1-.45h-3.69l-3,0h-1.34l-21.63,0h-3l-32.58-.23-1.88,0h-.27"/><path class="b" d="M94.33,8.75,95,5.1l-.7,3.65a67.7,67.7,0,0,1,8.09,2l1.17-3.52-1.17,3.52a66.34,66.34,0,0,1,7.76,2.95l1.63-3.33-1.63,3.33a64.68,64.68,0,0,1,7.3,3.92l2.06-3.12-2.06,3.12a65.21,65.21,0,0,1,6.72,4.77l2.46-2.84A69.82,69.82,0,0,0,86.26,4.1l-.21,3.7A68.31,68.31,0,0,1,94.33,8.75Z"/><path class="b" d="M81.88,7.7c1.4,0,2.79,0,4.17.1l.21-3.7C84.8,4,83.33,4,81.85,4s-3,.09-4.42.19l.28,3.69C79.09,7.78,80.48,7.71,81.88,7.7Z"/><path class="b" d="M130.25,27.92l2.81-2.51-2.81,2.51a61.71,61.71,0,0,1,5.25,6.28l3.12-2.15L135.5,34.2a62.87,62.87,0,0,1,4.39,6.86l3.37-1.74-3.37,1.74a61.51,61.51,0,0,1,3.45,7.35l3.56-1.3-3.56,1.3a59.77,59.77,0,0,1,2.42,7.73l3.73-.86a66.33,66.33,0,0,0-22.83-35.76l-2.46,2.84A62.58,62.58,0,0,1,130.25,27.92Z"/><path class="b" d="M147.16,64.1l3.81-.39a65.13,65.13,0,0,0-1.48-8.43l-3.73.86A61.59,61.59,0,0,1,147.16,64.1Z"/><path class="b" d="M147.52,70.15l3.83,0c0-2.16-.16-4.3-.38-6.41l-3.81.39C147.37,66.09,147.5,68.11,147.52,70.15Z"/><path class="b" d="M46.46,18.21l-2.12-3.09,2.12,3.09a65.19,65.19,0,0,1,7.22-4.05L52,10.86l1.68,3.3a67.31,67.31,0,0,1,7.71-3.08l-1.23-3.5,1.23,3.5A67.13,67.13,0,0,1,69.45,9l-.77-3.64L69.45,9a67.55,67.55,0,0,1,8.26-1.1l-.28-3.69A69.76,69.76,0,0,0,37.31,20.3l2.51,2.8A64.13,64.13,0,0,1,46.46,18.21Z"/><path class="b" d="M17.59,65.23l-3.81-.32c-.19,2.11-.29,4.25-.27,6.41l3.83,0C17.32,69.24,17.41,67.23,17.59,65.23Z"/><path class="b" d="M18.85,57.25l-3.74-.79a63.82,63.82,0,0,0-1.33,8.45l3.81.32A60.28,60.28,0,0,1,18.85,57.25Z"/><path class="b" d="M21.13,49.48l-3.58-1.24,3.58,1.24a63.22,63.22,0,0,1,3.33-7.41l-3.4-1.68,3.4,1.68a61.49,61.49,0,0,1,4.27-6.94L25.57,33l3.16,2.1a62.69,62.69,0,0,1,5.13-6.37L31,26.3l2.84,2.46a65.11,65.11,0,0,1,6-5.66l-2.51-2.8a66.29,66.29,0,0,0-22.2,36.16l3.74.79A61.45,61.45,0,0,1,21.13,49.48Z"/><path class="b" d="M93.63,12.39l.7-3.64a68.31,68.31,0,0,0-8.28-1l-.21,3.7A64.46,64.46,0,0,1,93.63,12.39Z"/><path class="b" d="M81.91,11.4c1.32,0,2.63,0,3.93.1l.21-3.7c-1.38-.07-2.77-.12-4.17-.1s-2.79.08-4.17.17l.28,3.7C79.29,11.48,80.59,11.41,81.91,11.4Z"/><path class="b" d="M101.24,14.25l1.18-3.53a67.7,67.7,0,0,0-8.09-2l-.7,3.64A63.53,63.53,0,0,1,101.24,14.25Z"/><path class="b" d="M108.55,17l1.63-3.36a66.34,66.34,0,0,0-7.76-2.95l-1.18,3.53A60.51,60.51,0,0,1,108.55,17Z"/><path class="b" d="M55.37,17.49l-1.69-3.33a65.19,65.19,0,0,0-7.22,4.05l2.11,3.09A62.66,62.66,0,0,1,55.37,17.49Z"/><path class="b" d="M78,11.57l-.28-3.7A67.55,67.55,0,0,0,69.45,9l.76,3.63A63.86,63.86,0,0,1,78,11.57Z"/><path class="b" d="M115.42,20.71l2.06-3.12a64.68,64.68,0,0,0-7.3-3.92L108.55,17A61.08,61.08,0,0,1,115.42,20.71Z"/><path class="b" d="M62.63,14.59l-1.24-3.51a67.31,67.31,0,0,0-7.71,3.08l1.69,3.33A61,61,0,0,1,62.63,14.59Z"/><path class="b" d="M127.44,30.44l2.81-2.52a62.58,62.58,0,0,0-6-5.56l-2.45,2.85A61.21,61.21,0,0,1,127.44,30.44Z"/><path class="b" d="M139.76,49.73l3.58-1.32a61.51,61.51,0,0,0-3.45-7.35l-3.38,1.75A58.26,58.26,0,0,1,139.76,49.73Z"/><path class="b" d="M142,57l3.72-.86a59.77,59.77,0,0,0-2.42-7.73l-3.58,1.32A57.36,57.36,0,0,1,142,57Z"/><path class="b" d="M143.35,64.49l3.81-.39a61.59,61.59,0,0,0-1.4-8L142,57A57.73,57.73,0,0,1,143.35,64.49Z"/><path class="b" d="M143.69,70.18l3.83,0c0-2-.15-4.06-.36-6.05l-3.81.39C143.55,66.37,143.67,68.26,143.69,70.18Z"/><path class="b" d="M48.57,21.3l-2.11-3.09a64.13,64.13,0,0,0-6.64,4.89l2.5,2.8A61.27,61.27,0,0,1,48.57,21.3Z"/><path class="b" d="M121.75,25.21l2.45-2.85a65.21,65.21,0,0,0-6.72-4.77l-2.06,3.12A61.4,61.4,0,0,1,121.75,25.21Z"/><path class="b" d="M136.51,42.81l3.38-1.75a62.87,62.87,0,0,0-4.39-6.86l-3.12,2.14A59.61,59.61,0,0,1,136.51,42.81Z"/><path class="b" d="M132.38,36.34l3.12-2.14a61.71,61.71,0,0,0-5.25-6.28l-2.81,2.52A59.13,59.13,0,0,1,132.38,36.34Z"/><path class="b" d="M70.21,12.6,69.45,9a67.13,67.13,0,0,0-8.06,2.11l1.24,3.51A63.41,63.41,0,0,1,70.21,12.6Z"/><path class="b" d="M27.87,43.75l-3.41-1.68a63.22,63.22,0,0,0-3.33,7.41l3.61,1.25A58.27,58.27,0,0,1,27.87,43.75Z"/><path class="b" d="M22.59,58l-3.74-.79a60.28,60.28,0,0,0-1.26,8l3.81.33A58,58,0,0,1,22.59,58Z"/><path class="b" d="M24.74,50.73l-3.61-1.25a61.45,61.45,0,0,0-2.28,7.77l3.74.79A56.37,56.37,0,0,1,24.74,50.73Z"/><path class="b" d="M21.4,65.56l-3.81-.33c-.18,2-.27,4-.25,6.06l3.83,0C21.15,69.33,21.24,67.43,21.4,65.56Z"/><path class="b" d="M42.32,25.9l-2.5-2.8a65.11,65.11,0,0,0-6,5.66l2.86,2.47A58.78,58.78,0,0,1,42.32,25.9Z"/><path class="b" d="M36.72,31.23l-2.86-2.47a62.69,62.69,0,0,0-5.13,6.37l3.16,2.09A59.12,59.12,0,0,1,36.72,31.23Z"/><path class="b" d="M31.89,37.22l-3.16-2.09a61.49,61.49,0,0,0-4.27,6.94l3.41,1.68A59.9,59.9,0,0,1,31.89,37.22Z"/><path class="b" d="M113.35,23.84l2.07-3.13A61.08,61.08,0,0,0,108.55,17l-1.63,3.35A57.48,57.48,0,0,1,113.35,23.84Z"/><path class="b" d="M100.07,17.78l1.17-3.53a63.53,63.53,0,0,0-7.61-1.86L92.93,16A58.1,58.1,0,0,1,100.07,17.78Z"/><path class="b" d="M119.29,28.05l2.46-2.84a61.4,61.4,0,0,0-6.33-4.5l-2.07,3.13A56.79,56.79,0,0,1,119.29,28.05Z"/><path class="b" d="M139.54,64.88l3.81-.39A57.73,57.73,0,0,0,142,57l-3.73.86A52.54,52.54,0,0,1,139.54,64.88Z"/><path class="b" d="M81.94,15.11c1.24,0,2.46,0,3.68.09l.22-3.7c-1.3-.07-2.61-.11-3.93-.1s-2.62.08-3.92.17l.28,3.7C79.48,15.18,80.71,15.12,81.94,15.11Z"/><path class="b" d="M92.93,16l.7-3.65a64.46,64.46,0,0,0-7.79-.89l-.22,3.7A58.59,58.59,0,0,1,92.93,16Z"/><path class="b" d="M138.31,57.86,142,57a57.36,57.36,0,0,0-2.28-7.27L136.18,51A53.48,53.48,0,0,1,138.31,57.86Z"/><path class="b" d="M136.18,51l3.58-1.31a58.26,58.26,0,0,0-3.25-6.92l-3.38,1.74A54.1,54.1,0,0,1,136.18,51Z"/><path class="b" d="M124.63,33l2.81-2.51a61.21,61.21,0,0,0-5.69-5.23l-2.46,2.84A59.06,59.06,0,0,1,124.63,33Z"/><path class="b" d="M139.86,70.22l3.83,0c0-1.92-.14-3.81-.34-5.69l-3.81.39C139.73,66.64,139.84,68.42,139.86,70.22Z"/><path class="b" d="M133.13,44.55l3.38-1.74a59.61,59.61,0,0,0-4.13-6.47l-3.12,2.15A55.54,55.54,0,0,1,133.13,44.55Z"/><path class="b" d="M129.26,38.49l3.12-2.15a59.13,59.13,0,0,0-4.94-5.9L124.63,33A58.3,58.3,0,0,1,129.26,38.49Z"/><path class="b" d="M106.92,20.38,108.55,17a60.51,60.51,0,0,0-7.31-2.78l-1.17,3.53A57.51,57.51,0,0,1,106.92,20.38Z"/><path class="b" d="M25.22,65.88l-3.82-.32c-.16,1.87-.25,3.77-.23,5.69l3.83,0A52.49,52.49,0,0,1,25.22,65.88Z"/><path class="b" d="M63.87,18.1l-1.24-3.51a61,61,0,0,0-7.26,2.9l1.69,3.33A56.84,56.84,0,0,1,63.87,18.1Z"/><path class="b" d="M50.69,24.38,48.57,21.3a61.27,61.27,0,0,0-6.25,4.6l2.51,2.8A58.21,58.21,0,0,1,50.69,24.38Z"/><path class="b" d="M57.06,20.82l-1.69-3.33a62.66,62.66,0,0,0-6.8,3.81l2.12,3.08A57.34,57.34,0,0,1,57.06,20.82Z"/><path class="b" d="M78.27,15.27,78,11.57a63.86,63.86,0,0,0-7.78,1L71,16.23A58.26,58.26,0,0,1,78.27,15.27Z"/><path class="b" d="M71,16.23l-.76-3.63a63.41,63.41,0,0,0-7.58,2l1.24,3.51A59.19,59.19,0,0,1,71,16.23Z"/><path class="b" d="M44.83,28.7l-2.51-2.8a58.78,58.78,0,0,0-5.6,5.33l2.86,2.47A55.17,55.17,0,0,1,44.83,28.7Z"/><path class="b" d="M28.34,52l-3.6-1.25A56.37,56.37,0,0,0,22.59,58l3.74.79A54.5,54.5,0,0,1,28.34,52Z"/><path class="b" d="M26.33,58.83,22.59,58a58,58,0,0,0-1.19,7.52l3.82.32A52.82,52.82,0,0,1,26.33,58.83Z"/><path class="b" d="M31.28,45.44l-3.41-1.69a58.27,58.27,0,0,0-3.13,7L28.34,52A56.5,56.5,0,0,1,31.28,45.44Z"/><path class="b" d="M39.58,33.7l-2.86-2.47a59.12,59.12,0,0,0-4.83,6L35,39.31A56.78,56.78,0,0,1,39.58,33.7Z"/><path class="b" d="M35,39.31l-3.15-2.09a59.9,59.9,0,0,0-4,6.53l3.41,1.69A55.57,55.57,0,0,1,35,39.31Z"/><path class="b" d="M105.29,23.74l1.63-3.36a57.51,57.51,0,0,0-6.85-2.6l-1.18,3.53A54.07,54.07,0,0,1,105.29,23.74Z"/><path class="b" d="M111.29,27l2.06-3.12a57.48,57.48,0,0,0-6.43-3.46l-1.63,3.36A53.88,53.88,0,0,1,111.29,27Z"/><path class="b" d="M98.89,21.31l1.18-3.53A58.1,58.1,0,0,0,92.93,16l-.7,3.64A56.28,56.28,0,0,1,98.89,21.31Z"/><path class="b" d="M116.83,30.9l2.46-2.85a56.79,56.79,0,0,0-5.94-4.21L111.29,27A51.83,51.83,0,0,1,116.83,30.9Z"/><path class="b" d="M82,18.82c1.15,0,2.29,0,3.43.08l.21-3.7c-1.22-.06-2.44-.1-3.68-.09s-2.46.07-3.67.16L78.54,19C79.68,18.89,80.82,18.83,82,18.82Z"/><path class="b" d="M92.23,19.68l.7-3.64a58.59,58.59,0,0,0-7.31-.84l-.21,3.7A58.54,58.54,0,0,1,92.23,19.68Z"/><path class="b" d="M136,70.25l3.83,0c0-1.8-.13-3.58-.32-5.34l-3.8.39C135.91,66.91,136,68.57,136,70.25Z"/><path class="b" d="M47.34,31.5l-2.51-2.8a55.17,55.17,0,0,0-5.25,5l2.85,2.46A54.15,54.15,0,0,1,47.34,31.5Z"/><path class="b" d="M42.43,36.16,39.58,33.7A56.78,56.78,0,0,0,35,39.31l3.16,2.1A53.36,53.36,0,0,1,42.43,36.16Z"/><path class="b" d="M121.81,35.47,124.63,33a59.06,59.06,0,0,0-5.34-4.9l-2.46,2.85A51.38,51.38,0,0,1,121.81,35.47Z"/><path class="b" d="M52.8,27.47l-2.11-3.09a58.21,58.21,0,0,0-5.86,4.32l2.51,2.8A54.12,54.12,0,0,1,52.8,27.47Z"/><path class="b" d="M29,66.2l-3.81-.32A52.49,52.49,0,0,0,25,71.22l3.82,0C28.81,69.5,28.89,67.84,29,66.2Z"/><path class="b" d="M32,53.23,28.34,52a54.5,54.5,0,0,0-2,6.85l3.74.8A49.09,49.09,0,0,1,32,53.23Z"/><path class="b" d="M34.69,47.12l-3.41-1.68A56.5,56.5,0,0,0,28.34,52L32,53.23A50.8,50.8,0,0,1,34.69,47.12Z"/><path class="b" d="M30.07,59.63l-3.74-.8a52.82,52.82,0,0,0-1.11,7L29,66.2A50.53,50.53,0,0,1,30.07,59.63Z"/><path class="b" d="M58.75,24.14l-1.69-3.32a57.34,57.34,0,0,0-6.37,3.56l2.11,3.09A56.62,56.62,0,0,1,58.75,24.14Z"/><path class="b" d="M38.2,41.41,35,39.31a55.57,55.57,0,0,0-3.76,6.13l3.41,1.68A52,52,0,0,1,38.2,41.41Z"/><path class="b" d="M132.59,52.35,136.18,51a54.1,54.1,0,0,0-3.05-6.49l-3.38,1.75A49.84,49.84,0,0,1,132.59,52.35Z"/><path class="b" d="M129.75,46.3l3.38-1.75a55.54,55.54,0,0,0-3.87-6.06l-3.13,2.15A49.85,49.85,0,0,1,129.75,46.3Z"/><path class="b" d="M126.13,40.64l3.13-2.15A58.3,58.3,0,0,0,124.63,33l-2.82,2.52A51.89,51.89,0,0,1,126.13,40.64Z"/><path class="b" d="M134.58,58.71l3.73-.85A53.48,53.48,0,0,0,136.18,51l-3.59,1.31A49.39,49.39,0,0,1,134.58,58.71Z"/><path class="b" d="M78.54,19l-.27-3.69a58.26,58.26,0,0,0-7.3,1l.77,3.63A58.23,58.23,0,0,1,78.54,19Z"/><path class="b" d="M71.74,19.86,71,16.23a59.19,59.19,0,0,0-7.1,1.87l1.24,3.51A53.79,53.79,0,0,1,71.74,19.86Z"/><path class="b" d="M65.11,21.61,63.87,18.1a56.84,56.84,0,0,0-6.81,2.72l1.69,3.32A55,55,0,0,1,65.11,21.61Z"/><path class="b" d="M135.74,65.27l3.8-.39a52.54,52.54,0,0,0-1.23-7l-3.73.85A49.16,49.16,0,0,1,135.74,65.27Z"/><path class="b" d="M130.86,59.57l3.72-.86a49.39,49.39,0,0,0-2-6.36L129,53.66A45.55,45.55,0,0,1,130.86,59.57Z"/><path class="b" d="M103.65,27.09l1.64-3.35a54.07,54.07,0,0,0-6.4-2.43l-1.18,3.53A49.77,49.77,0,0,1,103.65,27.09Z"/><path class="b" d="M109.23,30.09,111.29,27a53.88,53.88,0,0,0-6-3.22l-1.64,3.35A49,49,0,0,1,109.23,30.09Z"/><path class="b" d="M91.53,23.33l.7-3.65a58.54,58.54,0,0,0-6.82-.78l-.21,3.71A50.65,50.65,0,0,1,91.53,23.33Z"/><path class="b" d="M97.71,24.84l1.18-3.53a56.28,56.28,0,0,0-6.66-1.63l-.7,3.65A50.65,50.65,0,0,1,97.71,24.84Z"/><path class="b" d="M114.37,33.74l2.46-2.84A51.83,51.83,0,0,0,111.29,27l-2.06,3.13A49.18,49.18,0,0,1,114.37,33.74Z"/><path class="b" d="M126.37,48l3.38-1.74a49.85,49.85,0,0,0-3.62-5.66L123,42.79A48.71,48.71,0,0,1,126.37,48Z"/><path class="b" d="M131.93,65.66l3.81-.39a49.16,49.16,0,0,0-1.16-6.56l-3.72.86A47.26,47.26,0,0,1,131.93,65.66Z"/><path class="b" d="M132.2,70.29l3.83,0c0-1.68-.12-3.34-.29-5l-3.81.39C132.09,67.18,132.19,68.72,132.2,70.29Z"/><path class="b" d="M82,22.53c1.07,0,2.13,0,3.19.08l.21-3.71c-1.14,0-2.28-.09-3.43-.08s-2.3.07-3.44.14l.28,3.7C79.87,22.59,80.94,22.53,82,22.53Z"/><path class="b" d="M123,42.79l3.12-2.15a51.89,51.89,0,0,0-4.32-5.17L119,38A48.32,48.32,0,0,1,123,42.79Z"/><path class="b" d="M129,53.66l3.58-1.31a49.84,49.84,0,0,0-2.84-6.05L126.37,48A48.83,48.83,0,0,1,129,53.66Z"/><path class="b" d="M60.44,27.47l-1.69-3.33a56.62,56.62,0,0,0-6,3.33l2.12,3.09A51.28,51.28,0,0,1,60.44,27.47Z"/><path class="b" d="M41.36,43.5,38.2,41.41a52,52,0,0,0-3.51,5.71l3.41,1.69A48.11,48.11,0,0,1,41.36,43.5Z"/><path class="b" d="M45.29,38.63l-2.86-2.47a53.36,53.36,0,0,0-4.23,5.25l3.16,2.09A49.51,49.51,0,0,1,45.29,38.63Z"/><path class="b" d="M78.82,22.66,78.54,19a58.23,58.23,0,0,0-6.8.9l.76,3.64A50.31,50.31,0,0,1,78.82,22.66Z"/><path class="b" d="M35.55,54.48,32,53.23a49.09,49.09,0,0,0-1.88,6.4l3.74.79A47.2,47.2,0,0,1,35.55,54.48Z"/><path class="b" d="M33.81,60.42l-3.74-.79a50.53,50.53,0,0,0-1,6.57l3.82.32A45.58,45.58,0,0,1,33.81,60.42Z"/><path class="b" d="M38.1,48.81l-3.41-1.69A50.8,50.8,0,0,0,32,53.23l3.6,1.25A47.38,47.38,0,0,1,38.1,48.81Z"/><path class="b" d="M72.5,23.5l-.76-3.64a53.79,53.79,0,0,0-6.63,1.75l1.23,3.5A50.63,50.63,0,0,1,72.5,23.5Z"/><path class="b" d="M49.84,34.3l-2.5-2.8a54.15,54.15,0,0,0-4.91,4.66l2.86,2.47A49,49,0,0,1,49.84,34.3Z"/><path class="b" d="M66.34,25.11l-1.23-3.5a55,55,0,0,0-6.36,2.53l1.69,3.33A50.39,50.39,0,0,1,66.34,25.11Z"/><path class="b" d="M32.85,66.52,29,66.2c-.14,1.64-.22,3.3-.21,5l3.83,0C32.64,69.59,32.71,68.05,32.85,66.52Z"/><path class="b" d="M54.92,30.56,52.8,27.47a54.12,54.12,0,0,0-5.46,4l2.5,2.8A52.31,52.31,0,0,1,54.92,30.56Z"/><path class="b" d="M119,38l2.81-2.52a51.38,51.38,0,0,0-5-4.57l-2.46,2.84A47.89,47.89,0,0,1,119,38Z"/><path class="b" d="M111.92,36.59l2.45-2.85a49.18,49.18,0,0,0-5.14-3.65l-2.06,3.12A46.9,46.9,0,0,1,111.92,36.59Z"/><path class="b" d="M107.17,33.21l2.06-3.12a49,49,0,0,0-5.58-3L102,30.45A46.21,46.21,0,0,1,107.17,33.21Z"/><path class="b" d="M116.19,40.51,119,38a47.89,47.89,0,0,0-4.63-4.25l-2.45,2.85A46.56,46.56,0,0,1,116.19,40.51Z"/><path class="b" d="M82,26.23c1,0,2,0,2.94.08l.22-3.7c-1.06-.06-2.12-.09-3.19-.08s-2.14.06-3.19.13l.28,3.7C80.07,26.29,81.05,26.24,82,26.23Z"/><path class="b" d="M102,30.45l1.63-3.36a49.77,49.77,0,0,0-5.94-2.25l-1.17,3.53A45.12,45.12,0,0,1,102,30.45Z"/><path class="b" d="M119.89,44.94,123,42.79a48.32,48.32,0,0,0-4-4.8l-2.81,2.52A44.75,44.75,0,0,1,119.89,44.94Z"/><path class="b" d="M90.83,27l.7-3.65a50.65,50.65,0,0,0-6.33-.72L85,26.31A46.73,46.73,0,0,1,90.83,27Z"/><path class="b" d="M128.12,66.05l3.81-.39a47.26,47.26,0,0,0-1.07-6.09l-3.73.86A41.78,41.78,0,0,1,128.12,66.05Z"/><path class="b" d="M128.37,70.32l3.83,0c0-1.57-.11-3.11-.27-4.63l-3.81.39C128.27,67.45,128.36,68.88,128.37,70.32Z"/><path class="b" d="M123,49.78,126.37,48A48.71,48.71,0,0,0,123,42.79l-3.12,2.15A43.69,43.69,0,0,1,123,49.78Z"/><path class="b" d="M125.43,55,129,53.66A48.83,48.83,0,0,0,126.37,48L123,49.78A43.87,43.87,0,0,1,125.43,55Z"/><path class="b" d="M127.13,60.43l3.73-.86A45.55,45.55,0,0,0,129,53.66L125.43,55A42.16,42.16,0,0,1,127.13,60.43Z"/><path class="b" d="M96.54,28.37l1.17-3.53a50.65,50.65,0,0,0-6.18-1.51L90.83,27A45.29,45.29,0,0,1,96.54,28.37Z"/><path class="b" d="M36.66,66.85l-3.81-.33c-.14,1.53-.21,3.07-.2,4.63l3.83,0C36.47,69.68,36.53,68.25,36.66,66.85Z"/><path class="b" d="M44.52,45.59,41.36,43.5a48.11,48.11,0,0,0-3.26,5.31l3.41,1.69A44.81,44.81,0,0,1,44.52,45.59Z"/><path class="b" d="M48.15,41.1l-2.86-2.47a49.51,49.51,0,0,0-3.93,4.87l3.16,2.09A44.53,44.53,0,0,1,48.15,41.1Z"/><path class="b" d="M41.51,50.5,38.1,48.81a47.38,47.38,0,0,0-2.55,5.67l3.61,1.25A43.2,43.2,0,0,1,41.51,50.5Z"/><path class="b" d="M37.55,61.21l-3.74-.79a45.58,45.58,0,0,0-1,6.1l3.81.33A41.94,41.94,0,0,1,37.55,61.21Z"/><path class="b" d="M39.16,55.73l-3.61-1.25a47.2,47.2,0,0,0-1.74,5.94l3.74.79A42.12,42.12,0,0,1,39.16,55.73Z"/><path class="b" d="M52.35,37.1l-2.51-2.8a49,49,0,0,0-4.55,4.33l2.86,2.47A44.17,44.17,0,0,1,52.35,37.1Z"/><path class="b" d="M67.58,28.62l-1.24-3.51a50.39,50.39,0,0,0-5.9,2.36l1.7,3.33A46.05,46.05,0,0,1,67.58,28.62Z"/><path class="b" d="M79.1,26.36l-.28-3.7a50.31,50.31,0,0,0-6.32.84l.76,3.63A48.54,48.54,0,0,1,79.1,26.36Z"/><path class="b" d="M73.26,27.13,72.5,23.5a50.63,50.63,0,0,0-6.16,1.61l1.24,3.51A46.9,46.9,0,0,1,73.26,27.13Z"/><path class="b" d="M57,33.65l-2.12-3.09a52.31,52.31,0,0,0-5.08,3.74l2.51,2.8A47.16,47.16,0,0,1,57,33.65Z"/><path class="b" d="M62.14,30.8l-1.7-3.33a51.28,51.28,0,0,0-5.52,3.09L57,33.65A45.27,45.27,0,0,1,62.14,30.8Z"/><path class="b" d="M59.15,36.74,57,33.65a47.16,47.16,0,0,0-4.69,3.45l2.51,2.81A40.59,40.59,0,0,1,59.15,36.74Z"/><path class="b" d="M63.83,34.12,62.14,30.8A45.27,45.27,0,0,0,57,33.65l2.11,3.09A43.51,43.51,0,0,1,63.83,34.12Z"/><path class="b" d="M74,30.76l-.77-3.63a46.9,46.9,0,0,0-5.68,1.49l1.24,3.51A42.85,42.85,0,0,1,74,30.76Z"/><path class="b" d="M68.82,32.13l-1.24-3.51a46.05,46.05,0,0,0-5.44,2.18l1.69,3.32A43.58,43.58,0,0,1,68.82,32.13Z"/><path class="b" d="M51,43.57,48.15,41.1a44.53,44.53,0,0,0-3.63,4.49l3.16,2.1A41,41,0,0,1,51,43.57Z"/><path class="b" d="M54.86,39.91,52.35,37.1a44.17,44.17,0,0,0-4.2,4L51,43.57A40.51,40.51,0,0,1,54.86,39.91Z"/><path class="b" d="M40.47,67.17l-3.81-.32c-.13,1.4-.19,2.83-.18,4.27l3.83,0C40.3,69.76,40.36,68.46,40.47,67.17Z"/><path class="b" d="M79.38,30.05l-.28-3.69a48.54,48.54,0,0,0-5.84.77L74,30.76A44.43,44.43,0,0,1,79.38,30.05Z"/><path class="b" d="M41.29,62l-3.74-.79a41.94,41.94,0,0,0-.89,5.64l3.81.32A40.06,40.06,0,0,1,41.29,62Z"/><path class="b" d="M44.92,52.18,41.51,50.5a43.2,43.2,0,0,0-2.35,5.23L42.77,57A39,39,0,0,1,44.92,52.18Z"/><path class="b" d="M47.68,47.69l-3.16-2.1a44.81,44.81,0,0,0-3,4.91l3.41,1.68A38.87,38.87,0,0,1,47.68,47.69Z"/><path class="b" d="M42.77,57l-3.61-1.25a42.12,42.12,0,0,0-1.61,5.48l3.74.79A38.65,38.65,0,0,1,42.77,57Z"/><path class="b" d="M119.61,51.53,123,49.78a43.69,43.69,0,0,0-3.1-4.84l-3.12,2.15A40.28,40.28,0,0,1,119.61,51.53Z"/><path class="b" d="M121.84,56.29,125.43,55A43.87,43.87,0,0,0,123,49.78l-3.38,1.75A40.48,40.48,0,0,1,121.84,56.29Z"/><path class="b" d="M123.41,61.29l3.72-.86a42.16,42.16,0,0,0-1.7-5.46l-3.59,1.32A39.79,39.79,0,0,1,123.41,61.29Z"/><path class="b" d="M116.77,47.09l3.12-2.15a44.75,44.75,0,0,0-3.7-4.43L113.37,43A40.06,40.06,0,0,1,116.77,47.09Z"/><path class="b" d="M113.37,43l2.82-2.51a46.56,46.56,0,0,0-4.27-3.92l-2.46,2.84A41.59,41.59,0,0,1,113.37,43Z"/><path class="b" d="M124.31,66.44l3.81-.39a41.78,41.78,0,0,0-1-5.62l-3.72.86A38,38,0,0,1,124.31,66.44Z"/><path class="b" d="M124.54,70.35l3.83,0c0-1.44-.1-2.87-.25-4.27l-3.81.39A38.9,38.9,0,0,1,124.54,70.35Z"/><path class="b" d="M105.11,36.34l2.06-3.13A46.21,46.21,0,0,0,102,30.45l-1.63,3.35A42.76,42.76,0,0,1,105.11,36.34Z"/><path class="b" d="M95.36,31.9l1.18-3.53A45.29,45.29,0,0,0,90.83,27l-.7,3.64A42.92,42.92,0,0,1,95.36,31.9Z"/><path class="b" d="M90.13,30.62l.7-3.64A46.73,46.73,0,0,0,85,26.31L84.77,30A42.87,42.87,0,0,1,90.13,30.62Z"/><path class="b" d="M82.07,29.94c.91,0,1.81,0,2.7.07l.21-3.7c-1,0-2-.09-2.94-.08s-2,.06-2.94.13l.28,3.69C80.27,30,81.16,30,82.07,29.94Z"/><path class="b" d="M109.46,39.43l2.46-2.84a46.9,46.9,0,0,0-4.75-3.38l-2.06,3.13A41.7,41.7,0,0,1,109.46,39.43Z"/><path class="b" d="M100.39,33.8,102,30.45a45.12,45.12,0,0,0-5.48-2.08L95.36,31.9A44.53,44.53,0,0,1,100.39,33.8Z"/><path class="b" d="M118.26,57.6l3.58-1.31a40.48,40.48,0,0,0-2.23-4.76l-3.38,1.74A37.93,37.93,0,0,1,118.26,57.6Z"/><path class="b" d="M107,42.27l2.46-2.84a41.7,41.7,0,0,0-4.35-3.09l-2.06,3.13A38,38,0,0,1,107,42.27Z"/><path class="b" d="M103.05,39.47l2.06-3.13a42.76,42.76,0,0,0-4.72-2.54l-1.63,3.36A38.47,38.47,0,0,1,103.05,39.47Z"/><path class="b" d="M110.56,45.54,113.37,43a41.59,41.59,0,0,0-3.91-3.59L107,42.27A38.11,38.11,0,0,1,110.56,45.54Z"/><path class="b" d="M94.19,35.43l1.17-3.53a42.92,42.92,0,0,0-5.23-1.28l-.7,3.65A39.81,39.81,0,0,1,94.19,35.43Z"/><path class="b" d="M98.76,37.16l1.63-3.36a44.53,44.53,0,0,0-5-1.9l-1.17,3.53A40.51,40.51,0,0,1,98.76,37.16Z"/><path class="b" d="M119.68,62.14l3.73-.85a39.79,39.79,0,0,0-1.57-5l-3.58,1.31A36.79,36.79,0,0,1,119.68,62.14Z"/><path class="b" d="M120.72,70.39l3.82,0a38.9,38.9,0,0,0-.23-3.91l-3.8.39C120.63,68,120.71,69.18,120.72,70.39Z"/><path class="b" d="M113.65,49.23l3.12-2.14a40.06,40.06,0,0,0-3.4-4.07l-2.81,2.52A37.5,37.5,0,0,1,113.65,49.23Z"/><path class="b" d="M120.51,66.83l3.8-.39a38,38,0,0,0-.9-5.15l-3.73.85A38,38,0,0,1,120.51,66.83Z"/><path class="b" d="M116.23,53.27l3.38-1.74a40.28,40.28,0,0,0-2.84-4.44l-3.12,2.14A37.87,37.87,0,0,1,116.23,53.27Z"/><path class="b" d="M44.29,67.49l-3.82-.32c-.11,1.29-.17,2.59-.16,3.92l3.83,0A35,35,0,0,1,44.29,67.49Z"/><path class="b" d="M89.43,34.27l.7-3.65A42.87,42.87,0,0,0,84.77,30l-.21,3.7A39,39,0,0,1,89.43,34.27Z"/><path class="b" d="M53.86,46,51,43.57a41,41,0,0,0-3.32,4.12l3.16,2.09A37.4,37.4,0,0,1,53.86,46Z"/><path class="b" d="M48.33,53.87l-3.41-1.69A39,39,0,0,0,42.77,57l3.6,1.24A37,37,0,0,1,48.33,53.87Z"/><path class="b" d="M50.84,49.78l-3.16-2.09a38.87,38.87,0,0,0-2.76,4.49l3.41,1.69A38,38,0,0,1,50.84,49.78Z"/><path class="b" d="M46.37,58.22,42.77,57a38.65,38.65,0,0,0-1.48,5l3.74.8A35.44,35.44,0,0,1,46.37,58.22Z"/><path class="b" d="M82.1,33.65c.83,0,1.65,0,2.46.06l.21-3.7c-.89-.05-1.79-.08-2.7-.07s-1.8,0-2.69.11l.27,3.7C80.46,33.7,81.28,33.65,82.1,33.65Z"/><path class="b" d="M45,62.8,41.29,62a40.06,40.06,0,0,0-.82,5.17l3.82.32A34.46,34.46,0,0,1,45,62.8Z"/><path class="b" d="M74.79,34.39,74,30.76a42.85,42.85,0,0,0-5.21,1.37l1.24,3.51A38.64,38.64,0,0,1,74.79,34.39Z"/><path class="b" d="M70.06,35.64l-1.24-3.51a43.58,43.58,0,0,0-5,2l1.69,3.33A37.33,37.33,0,0,1,70.06,35.64Z"/><path class="b" d="M61.27,39.83l-2.12-3.09a40.59,40.59,0,0,0-4.29,3.17l2.5,2.8A38.21,38.21,0,0,1,61.27,39.83Z"/><path class="b" d="M57.36,42.71l-2.5-2.8A40.51,40.51,0,0,0,51,43.57L53.86,46A36.72,36.72,0,0,1,57.36,42.71Z"/><path class="b" d="M65.52,37.45l-1.69-3.33a43.51,43.51,0,0,0-4.68,2.62l2.12,3.09A36.71,36.71,0,0,1,65.52,37.45Z"/><path class="b" d="M79.65,33.75l-.27-3.7a44.43,44.43,0,0,0-5.35.71l.76,3.63A40.86,40.86,0,0,1,79.65,33.75Z"/><path class="b" d="M82.14,37.35c.74,0,1.47,0,2.2.09l.22-3.73c-.81,0-1.63-.07-2.46-.06s-1.64.05-2.45.1l.28,3.73C80.66,37.43,81.39,37.36,82.14,37.35Z"/><path class="b" d="M71.3,39.16l-1.24-3.52a37.33,37.33,0,0,0-4.54,1.81l1.71,3.36A33,33,0,0,1,71.3,39.16Z"/><path class="b" d="M75.56,38l-.77-3.65a38.64,38.64,0,0,0-4.73,1.25l1.24,3.52A33.3,33.3,0,0,1,75.56,38Z"/><path class="b" d="M88.73,37.92l.7-3.65a39,39,0,0,0-4.87-.56l-.22,3.73A37.07,37.07,0,0,1,88.73,37.92Z"/><path class="b" d="M79.93,37.48l-.28-3.73a40.86,40.86,0,0,0-4.86.64L75.56,38A34.79,34.79,0,0,1,79.93,37.48Z"/><path class="b" d="M101,42.6l2.07-3.13a38.47,38.47,0,0,0-4.29-2.31l-1.65,3.39A36.63,36.63,0,0,1,101,42.6Z"/><path class="b" d="M104.54,45.13,107,42.27a38,38,0,0,0-4-2.8L101,42.6A34.22,34.22,0,0,1,104.54,45.13Z"/><path class="b" d="M93,39l1.18-3.54a39.81,39.81,0,0,0-4.76-1.16l-.7,3.65A36.12,36.12,0,0,1,93,39Z"/><path class="b" d="M97.11,40.55l1.65-3.39a40.51,40.51,0,0,0-4.57-1.73L93,39A36.17,36.17,0,0,1,97.11,40.55Z"/><path class="b" d="M48.79,63.59,45,62.8a34.46,34.46,0,0,0-.74,4.69l3.82.33A32.71,32.71,0,0,1,48.79,63.59Z"/><path class="b" d="M107.72,48.09l2.84-2.55A38.11,38.11,0,0,0,107,42.27l-2.46,2.86A33,33,0,0,1,107.72,48.09Z"/><path class="b" d="M50,59.49l-3.65-1.27A35.44,35.44,0,0,0,45,62.8l3.76.79A30.26,30.26,0,0,1,50,59.49Z"/><path class="b" d="M54,51.88l-3.17-2.1a38,38,0,0,0-2.51,4.09l3.42,1.69A33,33,0,0,1,54,51.88Z"/><path class="b" d="M48.11,67.82l-3.82-.33a35,35,0,0,0-.15,3.56L48,71A30.77,30.77,0,0,1,48.11,67.82Z"/><path class="b" d="M63.39,42.93l-2.12-3.1a38.21,38.21,0,0,0-3.91,2.88l2.52,2.81A33.08,33.08,0,0,1,63.39,42.93Z"/><path class="b" d="M67.23,40.81l-1.71-3.36a36.71,36.71,0,0,0-4.25,2.38l2.12,3.1A34.8,34.8,0,0,1,67.23,40.81Z"/><path class="b" d="M56.75,48.53,53.86,46a37.4,37.4,0,0,0-3,3.74L54,51.88A32.54,32.54,0,0,1,56.75,48.53Z"/><path class="b" d="M59.88,45.52l-2.52-2.81A36.72,36.72,0,0,0,53.86,46l2.89,2.49A33,33,0,0,1,59.88,45.52Z"/><path class="b" d="M51.75,55.56l-3.42-1.69a37,37,0,0,0-2,4.35L50,59.49A30.61,30.61,0,0,1,51.75,55.56Z"/><path class="b" d="M116.69,67.22l3.82-.39a38,38,0,0,0-.83-4.69l-3.74.87A32.2,32.2,0,0,1,116.69,67.22Z"/><path class="b" d="M115.94,63l3.74-.87a36.79,36.79,0,0,0-1.42-4.54l-3.62,1.32A31.89,31.89,0,0,1,115.94,63Z"/><path class="b" d="M110.51,51.39l3.14-2.16a37.5,37.5,0,0,0-3.09-3.69l-2.84,2.55A32.45,32.45,0,0,1,110.51,51.39Z"/><path class="b" d="M116.89,70.42l3.83,0c0-1.21-.09-2.39-.21-3.56l-3.82.39A30.71,30.71,0,0,1,116.89,70.42Z"/><path class="b" d="M114.64,58.92l3.62-1.32a37.93,37.93,0,0,0-2-4.33L112.84,55A32.77,32.77,0,0,1,114.64,58.92Z"/><path class="b" d="M112.84,55l3.39-1.75a37.87,37.87,0,0,0-2.58-4l-3.14,2.16A32.91,32.91,0,0,1,112.84,55Z"/><path class="b" d="M76.32,41.67,75.56,38a33.3,33.3,0,0,0-4.26,1.12l1.23,3.51A29.71,29.71,0,0,1,76.32,41.67Z"/><path class="b" d="M68.92,44.14l-1.69-3.33a34.8,34.8,0,0,0-3.84,2.12L65.51,46A29.61,29.61,0,0,1,68.92,44.14Z"/><path class="b" d="M95.47,43.9l1.64-3.35A36.17,36.17,0,0,0,93,39L91.83,42.5A31.14,31.14,0,0,1,95.47,43.9Z"/><path class="b" d="M65.51,46l-2.12-3.09a33.08,33.08,0,0,0-3.51,2.59l2.5,2.8A29.63,29.63,0,0,1,65.51,46Z"/><path class="b" d="M72.53,42.67,71.3,39.16a33,33,0,0,0-4.07,1.65l1.69,3.33A30,30,0,0,1,72.53,42.67Z"/><path class="b" d="M98.92,45.73,101,42.6a36.63,36.63,0,0,0-3.87-2.05L95.47,43.9A32.41,32.41,0,0,1,98.92,45.73Z"/><path class="b" d="M102.08,48l2.46-2.84A34.22,34.22,0,0,0,101,42.6l-2.06,3.13A30.55,30.55,0,0,1,102.08,48Z"/><path class="b" d="M80.21,41.17l-.28-3.69a34.79,34.79,0,0,0-4.37.56l.76,3.63A33.08,33.08,0,0,1,80.21,41.17Z"/><path class="b" d="M82.17,41.06c.66,0,1.31,0,2,.08l.21-3.7c-.73,0-1.46-.09-2.2-.09s-1.48.08-2.21.13l.28,3.69C80.86,41.13,81.51,41.07,82.17,41.06Z"/><path class="b" d="M111.06,60.23l3.58-1.31a32.77,32.77,0,0,0-1.8-3.9l-3.38,1.75A28.57,28.57,0,0,1,111.06,60.23Z"/><path class="b" d="M113.06,70.45l3.83,0a30.71,30.71,0,0,0-.2-3.2l-3.8.39C113,68.54,113.05,69.49,113.06,70.45Z"/><path class="b" d="M107.39,53.54l3.12-2.15a32.45,32.45,0,0,0-2.79-3.3l-2.81,2.51A29,29,0,0,1,107.39,53.54Z"/><path class="b" d="M59.6,51l-2.85-2.47A32.54,32.54,0,0,0,54,51.88L57.17,54A29,29,0,0,1,59.6,51Z"/><path class="b" d="M52.52,64.38l-3.73-.79a32.71,32.71,0,0,0-.68,4.23l3.81.32A31,31,0,0,1,52.52,64.38Z"/><path class="b" d="M109.46,56.77,112.84,55a32.91,32.91,0,0,0-2.33-3.63l-3.12,2.15A29.51,29.51,0,0,1,109.46,56.77Z"/><path class="b" d="M53.62,60.74,50,59.49a30.26,30.26,0,0,0-1.23,4.1l3.73.79A29.45,29.45,0,0,1,53.62,60.74Z"/><path class="b" d="M57.17,54,54,51.88a33,33,0,0,0-2.26,3.68l3.41,1.68A29.41,29.41,0,0,1,57.17,54Z"/><path class="b" d="M55.16,57.24l-3.41-1.68A30.61,30.61,0,0,0,50,59.49l3.6,1.25A28.78,28.78,0,0,1,55.16,57.24Z"/><path class="b" d="M62.38,48.32l-2.5-2.8a33,33,0,0,0-3.13,3L59.6,51A29.32,29.32,0,0,1,62.38,48.32Z"/><path class="b" d="M112.89,67.61l3.8-.39a32.2,32.2,0,0,0-.75-4.21l-3.72.85A31,31,0,0,1,112.89,67.61Z"/><path class="b" d="M112.22,63.86l3.72-.85a31.89,31.89,0,0,0-1.3-4.09l-3.58,1.31A30.07,30.07,0,0,1,112.22,63.86Z"/><path class="b" d="M51.92,68.14l-3.81-.32A30.77,30.77,0,0,0,48,71l3.83,0C51.79,70,51.84,69.08,51.92,68.14Z"/><path class="b" d="M104.91,50.6l2.81-2.51a33,33,0,0,0-3.18-3L102.08,48A32,32,0,0,1,104.91,50.6Z"/><path class="b" d="M91.83,42.5,93,39a36.12,36.12,0,0,0-4.28-1L88,41.56A32,32,0,0,1,91.83,42.5Z"/><path class="b" d="M88,41.56l.7-3.64a37.07,37.07,0,0,0-4.39-.48l-.21,3.7A33.23,33.23,0,0,1,88,41.56Z"/><path class="b" d="M67.62,49.1,65.51,46a29.63,29.63,0,0,0-3.13,2.3l2.51,2.8A27.11,27.11,0,0,1,67.62,49.1Z"/><path class="b" d="M57.22,62l-3.6-1.24a29.45,29.45,0,0,0-1.1,3.64l3.74.8A24.61,24.61,0,0,1,57.22,62Z"/><path class="b" d="M60.32,56.07,57.17,54a29.41,29.41,0,0,0-2,3.26l3.41,1.69A25.12,25.12,0,0,1,60.32,56.07Z"/><path class="b" d="M58.57,58.93l-3.41-1.69a28.78,28.78,0,0,0-1.54,3.5L57.22,62A25.22,25.22,0,0,1,58.57,58.93Z"/><path class="b" d="M62.45,53.46,59.6,51a29,29,0,0,0-2.43,3l3.15,2.09A26.64,26.64,0,0,1,62.45,53.46Z"/><path class="b" d="M64.89,51.12l-2.51-2.8A29.32,29.32,0,0,0,59.6,51l2.85,2.46A27,27,0,0,1,64.89,51.12Z"/><path class="b" d="M56.26,65.18l-3.74-.8a31,31,0,0,0-.6,3.76l3.81.32A25.2,25.2,0,0,1,56.26,65.18Z"/><path class="b" d="M73.77,46.17l-1.24-3.5a30,30,0,0,0-3.61,1.47l1.68,3.32A27.32,27.32,0,0,1,73.77,46.17Z"/><path class="b" d="M55.73,68.46l-3.81-.32c-.08.94-.13,1.88-.12,2.85l3.83,0C55.62,70.11,55.66,69.28,55.73,68.46Z"/><path class="b" d="M77.08,45.3l-.76-3.63a29.71,29.71,0,0,0-3.79,1l1.24,3.5A28.23,28.23,0,0,1,77.08,45.3Z"/><path class="b" d="M82.2,44.77c.58,0,1.15,0,1.72.07l.21-3.7c-.65,0-1.3-.08-2-.08s-1.31.07-2,.11l.28,3.7C81.06,44.83,81.62,44.77,82.2,44.77Z"/><path class="b" d="M70.6,47.46l-1.68-3.32A29.61,29.61,0,0,0,65.51,46l2.11,3.08A26.86,26.86,0,0,1,70.6,47.46Z"/><path class="b" d="M80.49,44.87l-.28-3.7a33.08,33.08,0,0,0-3.89.5l.76,3.63A27.15,27.15,0,0,1,80.49,44.87Z"/><path class="b" d="M104.27,55.69l3.12-2.15a29,29,0,0,0-2.48-2.94l-2.81,2.52A24.17,24.17,0,0,1,104.27,55.69Z"/><path class="b" d="M108.49,64.72l3.73-.86a30.07,30.07,0,0,0-1.16-3.63l-3.58,1.31A25,25,0,0,1,108.49,64.72Z"/><path class="b" d="M109.23,70.49l3.83,0c0-1-.07-1.91-.17-2.84l-3.81.39C109.17,68.82,109.22,69.64,109.23,70.49Z"/><path class="b" d="M106.08,58.51l3.38-1.74a29.51,29.51,0,0,0-2.07-3.23l-3.12,2.15A24.55,24.55,0,0,1,106.08,58.51Z"/><path class="b" d="M107.48,61.54l3.58-1.31a28.57,28.57,0,0,0-1.6-3.46l-3.38,1.74A27.72,27.72,0,0,1,107.48,61.54Z"/><path class="b" d="M102.1,53.12l2.81-2.52A32,32,0,0,0,102.08,48l-2.46,2.85A25.68,25.68,0,0,1,102.1,53.12Z"/><path class="b" d="M93.84,47.26l1.63-3.36a31.14,31.14,0,0,0-3.64-1.4L90.66,46A27.15,27.15,0,0,1,93.84,47.26Z"/><path class="b" d="M99.62,50.82,102.08,48a30.55,30.55,0,0,0-3.16-2.24l-2.07,3.12A24.76,24.76,0,0,1,99.62,50.82Z"/><path class="b" d="M90.66,46l1.17-3.53a32,32,0,0,0-3.8-.94l-.7,3.65A26.54,26.54,0,0,1,90.66,46Z"/><path class="b" d="M96.85,48.85l2.07-3.12a32.41,32.41,0,0,0-3.45-1.83l-1.63,3.36A25.39,25.39,0,0,1,96.85,48.85Z"/><path class="b" d="M87.33,45.21l.7-3.65a33.23,33.23,0,0,0-3.9-.42l-.21,3.7A27.56,27.56,0,0,1,87.33,45.21Z"/><path class="b" d="M109.08,68l3.81-.39a31,31,0,0,0-.67-3.75l-3.73.86A25.27,25.27,0,0,1,109.08,68Z"/><path class="b" d="M94.79,52l2.06-3.12a25.39,25.39,0,0,0-3-1.59l-1.63,3.35A21.84,21.84,0,0,1,94.79,52Z"/><path class="b" d="M92.21,50.61l1.63-3.35A27.15,27.15,0,0,0,90.66,46l-1.18,3.52A23,23,0,0,1,92.21,50.61Z"/><path class="b" d="M60,66l-3.74-.79a25.2,25.2,0,0,0-.53,3.28l3.82.32A20.07,20.07,0,0,1,60,66Z"/><path class="b" d="M89.48,49.55,90.66,46a26.54,26.54,0,0,0-3.33-.82l-.7,3.64A24.69,24.69,0,0,1,89.48,49.55Z"/><path class="b" d="M105.4,70.52l3.83,0c0-.85-.06-1.67-.15-2.49l-3.81.38C105.35,69.09,105.39,69.8,105.4,70.52Z"/><path class="b" d="M99.29,55.63l2.81-2.51a25.68,25.68,0,0,0-2.48-2.3l-2.45,2.84A23.21,23.21,0,0,1,99.29,55.63Z"/><path class="b" d="M97.17,53.66l2.45-2.84a24.76,24.76,0,0,0-2.77-2L94.79,52A25,25,0,0,1,97.17,53.66Z"/><path class="b" d="M102.7,60.26l3.38-1.75a24.55,24.55,0,0,0-1.81-2.82l-3.12,2.14A21.26,21.26,0,0,1,102.7,60.26Z"/><path class="b" d="M103.9,62.86l3.58-1.32a27.72,27.72,0,0,0-1.4-3l-3.38,1.75A21.18,21.18,0,0,1,103.9,62.86Z"/><path class="b" d="M105.27,68.38l3.81-.38a25.27,25.27,0,0,0-.59-3.28l-3.72.86A21.57,21.57,0,0,1,105.27,68.38Z"/><path class="b" d="M101.15,57.83l3.12-2.14a24.17,24.17,0,0,0-2.17-2.57l-2.81,2.51A24.31,24.31,0,0,1,101.15,57.83Z"/><path class="b" d="M104.77,65.58l3.72-.86a25,25,0,0,0-1-3.18l-3.58,1.32A20.53,20.53,0,0,1,104.77,65.58Z"/><path class="b" d="M59.55,68.78l-3.82-.32c-.07.82-.11,1.65-.1,2.49l3.83,0A19,19,0,0,1,59.55,68.78Z"/><path class="b" d="M80.76,48.56l-.27-3.69a27.15,27.15,0,0,0-3.41.43l.77,3.63A23.14,23.14,0,0,1,80.76,48.56Z"/><path class="b" d="M77.85,48.93l-.77-3.63a28.23,28.23,0,0,0-3.31.87L75,49.68A22.36,22.36,0,0,1,77.85,48.93Z"/><path class="b" d="M75,49.68l-1.24-3.51a27.32,27.32,0,0,0-3.17,1.29l1.69,3.32A23.08,23.08,0,0,1,75,49.68Z"/><path class="b" d="M86.63,48.85l.7-3.64a27.56,27.56,0,0,0-3.41-.37l-.22,3.69A25.49,25.49,0,0,1,86.63,48.85Z"/><path class="b" d="M72.29,50.78,70.6,47.46a26.86,26.86,0,0,0-3,1.64l2.12,3.09A23.34,23.34,0,0,1,72.29,50.78Z"/><path class="b" d="M82.23,48.48c.5,0,1,0,1.47.05l.22-3.69c-.57,0-1.14-.08-1.72-.07s-1.14.06-1.71.1l.27,3.69C81.25,48.53,81.74,48.48,82.23,48.48Z"/><path class="b" d="M69.74,52.19,67.62,49.1a27.11,27.11,0,0,0-2.73,2l2.5,2.8A24.93,24.93,0,0,1,69.74,52.19Z"/><path class="b" d="M60.82,63.23,57.22,62a24.61,24.61,0,0,0-1,3.2L60,66A21.11,21.11,0,0,1,60.82,63.23Z"/><path class="b" d="M65.31,55.93l-2.86-2.47a26.64,26.64,0,0,0-2.13,2.61l3.16,2.09A22.81,22.81,0,0,1,65.31,55.93Z"/><path class="b" d="M62,60.61l-3.41-1.68a25.22,25.22,0,0,0-1.35,3l3.6,1.25A20.45,20.45,0,0,1,62,60.61Z"/><path class="b" d="M63.48,58.16l-3.16-2.09a25.12,25.12,0,0,0-1.75,2.86L62,60.61A22.6,22.6,0,0,1,63.48,58.16Z"/><path class="b" d="M67.39,53.92l-2.5-2.8a27,27,0,0,0-2.44,2.34l2.86,2.47A21.94,21.94,0,0,1,67.39,53.92Z"/><path class="b" d="M78.61,52.56l-.76-3.63a22.36,22.36,0,0,0-2.84.75l1.23,3.51A18.77,18.77,0,0,1,78.61,52.56Z"/><path class="b" d="M66.64,60.25l-3.16-2.09A22.6,22.6,0,0,0,62,60.61l3.4,1.69A20.48,20.48,0,0,1,66.64,60.25Z"/><path class="b" d="M101.05,66.43l3.72-.85a20.53,20.53,0,0,0-.87-2.72l-3.58,1.31A17.52,17.52,0,0,1,101.05,66.43Z"/><path class="b" d="M101.46,68.77l3.81-.39a21.57,21.57,0,0,0-.5-2.8l-3.72.85A18.47,18.47,0,0,1,101.46,68.77Z"/><path class="b" d="M100.32,64.17l3.58-1.31a21.18,21.18,0,0,0-1.2-2.6L99.32,62A18.55,18.55,0,0,1,100.32,64.17Z"/><path class="b" d="M101.57,70.55l3.83,0c0-.72-.05-1.43-.13-2.14l-3.81.39A15.05,15.05,0,0,1,101.57,70.55Z"/><path class="b" d="M63.74,66.76,60,66a20.07,20.07,0,0,0-.45,2.81l3.81.33A18.27,18.27,0,0,1,63.74,66.76Z"/><path class="b" d="M65.38,62.3,62,60.61a20.45,20.45,0,0,0-1.16,2.62l3.6,1.25A18.47,18.47,0,0,1,65.38,62.3Z"/><path class="b" d="M68.16,58.39l-2.85-2.46a22.81,22.81,0,0,0-1.83,2.23l3.16,2.09A19.27,19.27,0,0,1,68.16,58.39Z"/><path class="b" d="M99.32,62l3.38-1.74a21.26,21.26,0,0,0-1.55-2.43L98,60A19.22,19.22,0,0,1,99.32,62Z"/><path class="b" d="M64.42,64.48l-3.6-1.25A21.11,21.11,0,0,0,60,66l3.74.79A17.61,17.61,0,0,1,64.42,64.48Z"/><path class="b" d="M96.48,58.15l2.81-2.52a23.21,23.21,0,0,0-2.12-2L94.71,56.5A18.39,18.39,0,0,1,96.48,58.15Z"/><path class="b" d="M82.27,52.18c.41,0,.81,0,1.22,0l.21-3.7c-.48,0-1-.06-1.47-.05s-1,.05-1.47.08L81,52.25C81.45,52.22,81.85,52.19,82.27,52.18Z"/><path class="b" d="M85.93,52.5l.7-3.65a25.49,25.49,0,0,0-2.93-.32l-.21,3.7A21.67,21.67,0,0,1,85.93,52.5Z"/><path class="b" d="M63.36,69.11l-3.81-.33a19,19,0,0,0-.09,2.14l3.82,0C63.28,70.29,63.31,69.69,63.36,69.11Z"/><path class="b" d="M88.3,53.08l1.18-3.53a24.69,24.69,0,0,0-2.85-.7l-.7,3.65A18.63,18.63,0,0,1,88.3,53.08Z"/><path class="b" d="M90.58,54l1.63-3.35a23,23,0,0,0-2.73-1.06L88.3,53.08A18.88,18.88,0,0,1,90.58,54Z"/><path class="b" d="M94.71,56.5l2.46-2.84A25,25,0,0,0,94.79,52L92.73,55.1A19.63,19.63,0,0,1,94.71,56.5Z"/><path class="b" d="M69.9,56.72l-2.51-2.8a21.94,21.94,0,0,0-2.08,2l2.85,2.46A19.61,19.61,0,0,1,69.9,56.72Z"/><path class="b" d="M98,60l3.12-2.15a24.31,24.31,0,0,0-1.86-2.2l-2.81,2.52A18.06,18.06,0,0,1,98,60Z"/><path class="b" d="M92.73,55.1,94.79,52a21.84,21.84,0,0,0-2.58-1.36L90.58,54A18.36,18.36,0,0,1,92.73,55.1Z"/><path class="b" d="M81,52.25l-.28-3.69a23.14,23.14,0,0,0-2.91.37l.76,3.63A21.51,21.51,0,0,1,81,52.25Z"/><path class="b" d="M74,54.1l-1.69-3.32a23.34,23.34,0,0,0-2.55,1.41l2.11,3.09A21,21,0,0,1,74,54.1Z"/><path class="b" d="M76.24,53.19,75,49.68a23.08,23.08,0,0,0-2.72,1.1L74,54.1A19.39,19.39,0,0,1,76.24,53.19Z"/><path class="b" d="M71.85,55.28l-2.11-3.09a24.93,24.93,0,0,0-2.35,1.73l2.51,2.8A19.61,19.61,0,0,1,71.85,55.28Z"/><path class="b" d="M96.74,65.48l3.58-1.31a18.55,18.55,0,0,0-1-2.17l-3.38,1.74A13.69,13.69,0,0,1,96.74,65.48Z"/><path class="b" d="M97.32,67.29l3.73-.86a17.52,17.52,0,0,0-.73-2.26l-3.58,1.31A14.13,14.13,0,0,1,97.32,67.29Z"/><path class="b" d="M95.94,63.74,99.32,62A19.22,19.22,0,0,0,98,60l-3.12,2.15A14.19,14.19,0,0,1,95.94,63.74Z"/><path class="b" d="M97.66,69.16l3.8-.39a18.47,18.47,0,0,0-.41-2.34l-3.73.86A14.34,14.34,0,0,1,97.66,69.16Z"/><path class="b" d="M81.32,56,81,52.25a21.51,21.51,0,0,0-2.43.31l.76,3.63A15.74,15.74,0,0,1,81.32,56Z"/><path class="b" d="M82.3,55.89c.33,0,.65,0,1,0l.21-3.7c-.41,0-.81,0-1.22,0s-.82,0-1.23.07l.28,3.7C81.64,55.92,82,55.89,82.3,55.89Z"/><path class="b" d="M97.74,70.59l3.83,0a15.05,15.05,0,0,0-.11-1.78l-3.8.39A13.41,13.41,0,0,1,97.74,70.59Z"/><path class="b" d="M77.48,56.69l-1.24-3.5A19.39,19.39,0,0,0,74,54.1l1.69,3.33A16.75,16.75,0,0,1,77.48,56.69Z"/><path class="b" d="M79.37,56.19l-.76-3.63a18.77,18.77,0,0,0-2.37.63l1.24,3.5A17.52,17.52,0,0,1,79.37,56.19Z"/><path class="b" d="M87.13,56.61l1.17-3.53a18.63,18.63,0,0,0-2.37-.58l-.7,3.64A17,17,0,0,1,87.13,56.61Z"/><path class="b" d="M85.23,56.14l.7-3.64a21.67,21.67,0,0,0-2.44-.27l-.21,3.7A15.71,15.71,0,0,1,85.23,56.14Z"/><path class="b" d="M89,57.31,90.58,54a18.88,18.88,0,0,0-2.28-.88l-1.17,3.53A14.25,14.25,0,0,1,89,57.31Z"/><path class="b" d="M94.91,62.13,98,60a18.06,18.06,0,0,0-1.55-1.83l-2.81,2.51A14.6,14.6,0,0,1,94.91,62.13Z"/><path class="b" d="M90.67,58.22l2.06-3.12A18.36,18.36,0,0,0,90.58,54L89,57.31A14.82,14.82,0,0,1,90.67,58.22Z"/><path class="b" d="M93.67,60.66l2.81-2.51a18.39,18.39,0,0,0-1.77-1.65l-2.46,2.85A13.52,13.52,0,0,1,93.67,60.66Z"/><path class="b" d="M92.25,59.35l2.46-2.85a19.63,19.63,0,0,0-2-1.4l-2.06,3.12A14.64,14.64,0,0,1,92.25,59.35Z"/><path class="b" d="M72.41,59.52l-2.51-2.8a19.61,19.61,0,0,0-1.74,1.67L71,60.86A13.62,13.62,0,0,1,72.41,59.52Z"/><path class="b" d="M74,58.37l-2.12-3.09a19.61,19.61,0,0,0-1.95,1.44l2.51,2.8A13.63,13.63,0,0,1,74,58.37Z"/><path class="b" d="M75.67,57.43,74,54.1a21,21,0,0,0-2.13,1.18L74,58.37A14.74,14.74,0,0,1,75.67,57.43Z"/><path class="b" d="M68,65.73l-3.6-1.25a17.61,17.61,0,0,0-.68,2.28l3.74.79A14.11,14.11,0,0,1,68,65.73Z"/><path class="b" d="M67.48,67.55l-3.74-.79a18.27,18.27,0,0,0-.38,2.35l3.81.32A14.74,14.74,0,0,1,67.48,67.55Z"/><path class="b" d="M68.79,64,65.38,62.3a18.47,18.47,0,0,0-1,2.18L68,65.73A15.21,15.21,0,0,1,68.79,64Z"/><path class="b" d="M69.8,62.35l-3.16-2.1a20.48,20.48,0,0,0-1.26,2L68.79,64A14.29,14.29,0,0,1,69.8,62.35Z"/><path class="b" d="M71,60.86l-2.85-2.47a19.27,19.27,0,0,0-1.52,1.86l3.16,2.1A14.57,14.57,0,0,1,71,60.86Z"/><path class="b" d="M67.17,69.43l-3.81-.32c0,.58-.08,1.18-.08,1.78l3.83,0C67.11,70.37,67.13,69.9,67.17,69.43Z"/><path class="b" d="M87.32,60.66,89,57.31a14.25,14.25,0,0,0-1.82-.7L86,60.14A10.74,10.74,0,0,1,87.32,60.66Z"/><path class="b" d="M77.36,60.75l-1.69-3.32a14.74,14.74,0,0,0-1.7.94l2.11,3.09A10.67,10.67,0,0,1,77.36,60.75Z"/><path class="b" d="M74.91,62.32l-2.5-2.8A13.62,13.62,0,0,0,71,60.86l2.86,2.46A10.94,10.94,0,0,1,74.91,62.32Z"/><path class="b" d="M86,60.14l1.18-3.53a17,17,0,0,0-1.9-.47l-.7,3.65A9.5,9.5,0,0,1,86,60.14Z"/><path class="b" d="M76.08,61.46,74,58.37a13.63,13.63,0,0,0-1.56,1.15l2.5,2.8A11,11,0,0,1,76.08,61.46Z"/><path class="b" d="M71,69.75l-3.82-.32c0,.47-.06.94-.06,1.42l3.83,0C70.94,70.46,71,70.1,71,69.75Z"/><path class="b" d="M88.61,61.35l2.06-3.13A14.82,14.82,0,0,0,89,57.31l-1.63,3.35A11.34,11.34,0,0,1,88.61,61.35Z"/><path class="b" d="M89.8,62.19l2.45-2.84a14.64,14.64,0,0,0-1.58-1.13l-2.06,3.13A9.82,9.82,0,0,1,89.8,62.19Z"/><path class="b" d="M71.21,68.34l-3.73-.79a14.74,14.74,0,0,0-.31,1.88l3.82.32A10.9,10.9,0,0,1,71.21,68.34Z"/><path class="b" d="M71.62,67,68,65.73a14.11,14.11,0,0,0-.54,1.82l3.73.79A11.91,11.91,0,0,1,71.62,67Z"/><path class="b" d="M73,64.44,69.8,62.35a14.29,14.29,0,0,0-1,1.63l3.41,1.69A12.59,12.59,0,0,1,73,64.44Z"/><path class="b" d="M72.2,65.67,68.79,64A15.21,15.21,0,0,0,68,65.73L71.62,67A11.83,11.83,0,0,1,72.2,65.67Z"/><path class="b" d="M73.87,63.32,71,60.86a14.57,14.57,0,0,0-1.21,1.49L73,64.44A12.15,12.15,0,0,1,73.87,63.32Z"/><path class="b" d="M91.79,64.28l3.12-2.15a14.6,14.6,0,0,0-1.24-1.47l-2.81,2.51A10.93,10.93,0,0,1,91.79,64.28Z"/><path class="b" d="M93.17,66.79l3.57-1.31a13.69,13.69,0,0,0-.8-1.74l-3.38,1.75A11.05,11.05,0,0,1,93.17,66.79Z"/><path class="b" d="M84.53,59.79l.7-3.65a15.71,15.71,0,0,0-2-.21l-.21,3.7A10.19,10.19,0,0,1,84.53,59.79Z"/><path class="b" d="M93.6,68.15l3.72-.86a14.13,14.13,0,0,0-.58-1.81l-3.57,1.31A12,12,0,0,1,93.6,68.15Z"/><path class="b" d="M93.85,69.55l3.81-.39a14.34,14.34,0,0,0-.34-1.87l-3.72.86A10.78,10.78,0,0,1,93.85,69.55Z"/><path class="b" d="M93.91,70.62l3.83,0a13.41,13.41,0,0,0-.08-1.43l-3.81.39A9.46,9.46,0,0,1,93.91,70.62Z"/><path class="b" d="M92.56,65.49l3.38-1.75a14.19,14.19,0,0,0-1-1.61l-3.12,2.15A10.78,10.78,0,0,1,92.56,65.49Z"/><path class="b" d="M82.33,59.6c.25,0,.49,0,.74,0l.21-3.7c-.33,0-.65,0-1,0s-.66,0-1,.06l.28,3.69C81.84,59.62,82.08,59.6,82.33,59.6Z"/><path class="b" d="M81.6,59.64,81.32,56a15.74,15.74,0,0,0-1.95.24l.77,3.63A11.42,11.42,0,0,1,81.6,59.64Z"/><path class="b" d="M90.86,63.17l2.81-2.51a13.52,13.52,0,0,0-1.42-1.31L89.8,62.19A14,14,0,0,1,90.86,63.17Z"/><path class="b" d="M78.72,60.2l-1.24-3.51a16.75,16.75,0,0,0-1.81.74l1.69,3.32A10.74,10.74,0,0,1,78.72,60.2Z"/><path class="b" d="M80.14,59.82l-.77-3.63a17.52,17.52,0,0,0-1.89.5l1.24,3.51A12.86,12.86,0,0,1,80.14,59.82Z"/><path class="b" d="M80.9,63.46l-.76-3.64a12.86,12.86,0,0,0-1.42.38L80,63.73A7.75,7.75,0,0,1,80.9,63.46Z"/><path class="b" d="M89.57,68.1l3.6-1.31a11.05,11.05,0,0,0-.61-1.3l-3.4,1.76A8.32,8.32,0,0,1,89.57,68.1Z"/><path class="b" d="M89.87,69l3.73-.86a12,12,0,0,0-.43-1.36l-3.6,1.31C89.68,68.4,89.79,68.7,89.87,69Z"/><path class="b" d="M89.16,67.25l3.4-1.76a10.78,10.78,0,0,0-.77-1.21l-3.13,2.15A6.63,6.63,0,0,1,89.16,67.25Z"/><path class="b" d="M88.66,66.43l3.13-2.15a10.93,10.93,0,0,0-.93-1.11L88,65.7A7.24,7.24,0,0,1,88.66,66.43Z"/><path class="b" d="M90,69.94l3.84-.39a10.78,10.78,0,0,0-.25-1.4L89.87,69C89.94,69.31,90,69.63,90,69.94Z"/><path class="b" d="M78.2,64.55l-2.12-3.09a11,11,0,0,0-1.17.86l2.53,2.82A6.18,6.18,0,0,1,78.2,64.55Z"/><path class="b" d="M79.06,64.09l-1.7-3.34a10.67,10.67,0,0,0-1.28.71l2.12,3.09A6.42,6.42,0,0,1,79.06,64.09Z"/><path class="b" d="M90.09,70.65l3.82,0a9.46,9.46,0,0,0-.06-1.07L90,69.94C90,70.18,90.08,70.41,90.09,70.65Z"/><path class="b" d="M80,63.73,78.72,60.2a10.74,10.74,0,0,0-1.36.55l1.7,3.34A8.88,8.88,0,0,1,80,63.73Z"/><path class="b" d="M87.32,65.05l2.48-2.86a9.82,9.82,0,0,0-1.19-.84l-2.06,3.13A8.5,8.5,0,0,1,87.32,65.05Z"/><path class="b" d="M83.83,63.43l.7-3.64a10.19,10.19,0,0,0-1.46-.16l-.22,3.72C83.18,63.37,83.51,63.38,83.83,63.43Z"/><path class="b" d="M82.36,63.3c.17,0,.33,0,.49.05l.22-3.72c-.25,0-.49,0-.74,0s-.49,0-.73,0l.28,3.72Z"/><path class="b" d="M81.88,63.36l-.28-3.72a11.42,11.42,0,0,0-1.46.18l.76,3.64A7.93,7.93,0,0,1,81.88,63.36Z"/><path class="b" d="M84.77,63.69,86,60.14a9.5,9.5,0,0,0-1.42-.35l-.7,3.64C84.15,63.49,84.46,63.6,84.77,63.69Z"/><path class="b" d="M88,65.7l2.82-2.53a14,14,0,0,0-1.06-1l-2.48,2.86C87.57,65.26,87.81,65.47,88,65.7Z"/><path class="b" d="M85.68,64l1.64-3.37A10.74,10.74,0,0,0,86,60.14l-1.18,3.55A9,9,0,0,1,85.68,64Z"/><path class="b" d="M77.44,65.14l-2.53-2.82a10.94,10.94,0,0,0-1,1l2.86,2.48A7.4,7.4,0,0,1,77.44,65.14Z"/><path class="b" d="M86.55,64.48l2.06-3.13a11.34,11.34,0,0,0-1.29-.69L85.68,64A8.93,8.93,0,0,1,86.55,64.48Z"/><path class="b" d="M76.73,65.8l-2.86-2.48A12.15,12.15,0,0,0,73,64.44l3.17,2.1A7.27,7.27,0,0,1,76.73,65.8Z"/><path class="b" d="M75,69.14l-3.75-.8A10.9,10.9,0,0,0,71,69.75l3.85.33A7.1,7.1,0,0,1,75,69.14Z"/><path class="b" d="M74.84,70.08,71,69.75c0,.35,0,.71,0,1.07l3.83,0C74.77,70.54,74.82,70.31,74.84,70.08Z"/><path class="b" d="M75.24,68.23,71.62,67a11.91,11.91,0,0,0-.41,1.36l3.75.8A6.86,6.86,0,0,1,75.24,68.23Z"/><path class="b" d="M76.12,66.54,73,64.44a12.59,12.59,0,0,0-.75,1.23l3.44,1.69A6.75,6.75,0,0,1,76.12,66.54Z"/><path class="b" d="M75.64,67.36,72.2,65.67A11.83,11.83,0,0,0,71.62,67l3.62,1.25A6.85,6.85,0,0,1,75.64,67.36Z"/><path class="b" d="M84.05,67.38,85.68,64a9,9,0,0,0-.91-.34L83.6,67.21A2.2,2.2,0,0,1,84.05,67.38Z"/><path class="b" d="M84.49,67.6l2.06-3.12a8.93,8.93,0,0,0-.87-.45l-1.63,3.35A2.58,2.58,0,0,1,84.49,67.6Z"/><path class="b" d="M86.26,70.69l3.83,0c0-.24-.06-.47-.08-.71l-3.79.39C86.23,70.45,86.26,70.56,86.26,70.69Z"/><path class="b" d="M83.13,67.08l.7-3.65c-.32,0-.65-.06-1-.08L82.64,67A4.07,4.07,0,0,1,83.13,67.08Z"/><path class="b" d="M84.87,67.89l2.45-2.84a8.5,8.5,0,0,0-.77-.57L84.49,67.6A2.12,2.12,0,0,1,84.87,67.89Z"/><path class="b" d="M86,69.41l3.57-1.31a8.32,8.32,0,0,0-.41-.85L85.79,69A3.42,3.42,0,0,1,86,69.41Z"/><path class="b" d="M85.23,68.21,88,65.7c-.23-.23-.47-.44-.72-.65l-2.45,2.84A2.74,2.74,0,0,1,85.23,68.21Z"/><path class="b" d="M86.22,70.33,90,69.94c0-.31-.07-.63-.14-.93l-3.72.85C86.18,70,86.2,70.17,86.22,70.33Z"/><path class="b" d="M86.15,69.86,89.87,69c-.08-.31-.19-.61-.3-.91L86,69.41A4,4,0,0,1,86.15,69.86Z"/><path class="b" d="M85.55,68.57l3.11-2.14A7.24,7.24,0,0,0,88,65.7l-2.81,2.51C85.34,68.33,85.45,68.44,85.55,68.57Z"/><path class="b" d="M85.79,69l3.37-1.73a6.63,6.63,0,0,0-.5-.82l-3.11,2.14A3.38,3.38,0,0,1,85.79,69Z"/><path class="b" d="M83.6,67.21l1.17-3.52c-.31-.09-.62-.2-.94-.26l-.7,3.65A4.12,4.12,0,0,1,83.6,67.21Z"/><path class="b" d="M81.2,67.23,80,63.73a8.88,8.88,0,0,0-.9.36l1.68,3.31A3.61,3.61,0,0,1,81.2,67.23Z"/><path class="b" d="M80.74,67.4l-1.68-3.31a6.42,6.42,0,0,0-.86.46l2.11,3.08Z"/><path class="b" d="M81.66,67.09l-.76-3.63a7.75,7.75,0,0,0-.94.27l1.24,3.5A3.5,3.5,0,0,1,81.66,67.09Z"/><path class="b" d="M80.31,67.63,78.2,64.55a6.18,6.18,0,0,0-.76.59l2.49,2.79C80.06,67.83,80.18,67.72,80.31,67.63Z"/><path class="b" d="M82.15,67l-.27-3.68a7.93,7.93,0,0,0-1,.1l.76,3.63A4.07,4.07,0,0,1,82.15,67Z"/><path class="b" d="M82.4,67l.24,0,.21-3.68c-.16,0-.32-.05-.49-.05l-.48.06L82.15,67A1.9,1.9,0,0,1,82.4,67Z"/><path class="b" d="M78.83,69.47l-3.59-1.24a6.86,6.86,0,0,0-.28.91l3.73.79C78.73,69.77,78.78,69.62,78.83,69.47Z"/><path class="b" d="M79,69l-3.39-1.68a6.85,6.85,0,0,0-.4.87l3.59,1.24C78.89,69.32,79,69.18,79,69Z"/><path class="b" d="M79.93,67.93l-2.49-2.79a7.4,7.4,0,0,0-.71.66l2.85,2.46A3.61,3.61,0,0,1,79.93,67.93Z"/><path class="b" d="M78.69,69.93,75,69.14a7.1,7.1,0,0,0-.12.94l3.79.32C78.65,70.24,78.66,70.08,78.69,69.93Z"/><path class="b" d="M78.63,70.4l-3.79-.32c0,.23-.07.46-.07.71l3.83,0C78.6,70.63,78.62,70.52,78.63,70.4Z"/><path class="b" d="M79.58,68.26,76.73,65.8a7.27,7.27,0,0,0-.61.74l3.15,2.09C79.37,68.5,79.47,68.38,79.58,68.26Z"/><path class="b" d="M79.27,68.63l-3.15-2.09a6.75,6.75,0,0,0-.48.82L79,69C79.11,68.9,79.18,68.76,79.27,68.63Z"/><path class="b" d="M78.63,70.4c0,.12,0,.23,0,.35l3.83,0Z"/><path class="b" d="M79.93,67.93a3.61,3.61,0,0,0-.35.33l2.85,2.46Z"/><path class="b" d="M80.31,67.63c-.13.09-.25.2-.38.3l2.5,2.79Z"/><path class="b" d="M86.26,70.69c0-.13,0-.24,0-.36l-3.79.39Z"/><path class="b" d="M82.15,67a4.07,4.07,0,0,0-.49,0l.77,3.63Z"/><path class="b" d="M81.66,67.09a3.5,3.5,0,0,0-.46.14l1.23,3.49Z"/><path class="b" d="M81.2,67.23a3.61,3.61,0,0,0-.46.17l1.69,3.32Z"/><path class="b" d="M78.69,69.93c0,.15,0,.31-.06.47l3.8.32Z"/><path class="b" d="M78.83,69.47c0,.15-.1.3-.14.46l3.74.79Z"/><path class="b" d="M79.58,68.26c-.11.12-.21.24-.31.37l3.16,2.09Z"/><path class="b" d="M79,69c-.07.14-.14.28-.2.43l3.6,1.25Z"/><path class="b" d="M79.27,68.63c-.09.13-.16.27-.24.41l3.4,1.68Z"/><path class="b" d="M80.74,67.4l-.43.23,2.12,3.09Z"/><path class="b" d="M86,69.41a3.42,3.42,0,0,0-.21-.43l-3.36,1.74Z"/><path class="b" d="M85.79,69a3.38,3.38,0,0,0-.24-.41l-3.12,2.15Z"/><path class="b" d="M86.15,69.86a4,4,0,0,0-.15-.45l-3.57,1.31Z"/><path class="b" d="M85.55,68.57c-.1-.13-.21-.24-.32-.36l-2.8,2.51Z"/><path class="b" d="M86.22,70.33c0-.16,0-.32-.07-.47l-3.72.86Z"/><path class="b" d="M83.13,67.08a4.07,4.07,0,0,0-.49,0l-.21,3.69Z"/><path class="b" d="M84.05,67.38a2.2,2.2,0,0,0-.45-.17l-1.17,3.51Z"/><path class="b" d="M83.6,67.21a4.12,4.12,0,0,0-.47-.13l-.7,3.64Z"/><path class="b" d="M84.49,67.6a2.58,2.58,0,0,0-.44-.22l-1.62,3.34Z"/><path class="b" d="M85.23,68.21a2.74,2.74,0,0,0-.36-.32l-2.44,2.83Z"/><path class="b" d="M84.87,67.89a2.12,2.12,0,0,0-.38-.29l-2.06,3.12Z"/><path class="b" d="M82.64,67l-.24,0a1.9,1.9,0,0,0-.25,0l.28,3.68Z"/><line class="b" x1="13.51" y1="71.32" x2="151.35" y2="70.12"/></svg>