<svg width="25" height="40" viewBox="0 0 25 40" fill="none" xmlns="http://www.w3.org/2000/svg">
<path d="M4.16666 39.9863L20.8333 39.9863C21.937 39.9817 22.9941 39.54 23.7746 38.7574C24.555 37.9747 24.9954 36.9146 25 35.8078L25 5.16491C24.9954 4.05809 24.555 2.99791 23.7746 2.21527C22.9942 1.43263 21.937 0.990917 20.8333 0.986332L4.16667 0.98633C3.06301 0.990915 2.00585 1.43263 1.22544 2.21527C0.445024 2.99791 0.00456933 4.05809 -7.70512e-07 5.1649L-3.4494e-06 35.8078C0.00456646 36.9146 0.445021 37.9747 1.22543 38.7574C2.00585 39.54 3.063 39.9817 4.16666 39.9863ZM12.5 30.2363C12.912 30.2363 13.3148 30.3589 13.6574 30.5884C14 30.818 14.2671 31.1443 14.4247 31.5261C14.5824 31.9078 14.6237 32.3279 14.5433 32.7332C14.4629 33.1385 14.2645 33.5108 13.9731 33.803C13.6818 34.0952 13.3106 34.2941 12.9064 34.3748C12.5023 34.4554 12.0834 34.414 11.7027 34.2559C11.3221 34.0977 10.9967 33.8299 10.7678 33.4864C10.5389 33.1428 10.4167 32.7388 10.4167 32.3256C10.4167 31.7715 10.6362 31.2401 11.0269 30.8483C11.4176 30.4564 11.9475 30.2363 12.5 30.2363Z" fill="#FF8C92"/>
</svg>
