<svg width="23" height="22" viewBox="0 0 23 22" fill="none" xmlns="http://www.w3.org/2000/svg">
<path d="M15.8832 1.78471C17.112 1.78824 18.2894 2.25953 19.1583 3.09565C20.0272 3.93177 20.517 5.06477 20.5207 6.24721V15.1713C20.517 16.3537 20.0272 17.4867 19.1583 18.3228C18.2894 19.1589 17.112 19.6302 15.8832 19.6338H6.60932C5.38052 19.6302 4.20309 19.1589 3.3342 18.3228C2.4653 17.4867 1.97554 16.3537 1.97187 15.1713V6.24721C1.97554 5.06477 2.4653 3.93177 3.3342 3.09565C4.20309 2.25953 5.38052 1.78824 6.60932 1.78471H15.8832ZM15.8832 0H6.60932C3.03857 0 0.117188 2.81117 0.117188 6.24721V15.1713C0.117188 18.6073 3.03857 21.4185 6.60932 21.4185H15.8832C19.454 21.4185 22.3753 18.6073 22.3753 15.1713V6.24721C22.3753 2.81117 19.454 0 15.8832 0Z" fill="#FF8C92"/>
<path d="M17.2743 6.24762C16.9991 6.24762 16.7302 6.16911 16.5014 6.02202C16.2726 5.87493 16.0943 5.66586 15.989 5.42125C15.8837 5.17664 15.8562 4.90748 15.9099 4.64781C15.9635 4.38814 16.096 4.14961 16.2906 3.9624C16.4851 3.77518 16.733 3.64769 17.0029 3.59603C17.2727 3.54438 17.5524 3.57089 17.8066 3.67221C18.0608 3.77353 18.2781 3.94511 18.431 4.16525C18.5838 4.38539 18.6654 4.64421 18.6654 4.90897C18.6658 5.08487 18.6301 5.25911 18.5603 5.4217C18.4905 5.58428 18.3881 5.732 18.2588 5.85638C18.1296 5.98076 17.9761 6.07935 17.8071 6.14649C17.6381 6.21363 17.4571 6.248 17.2743 6.24762ZM11.2462 7.13974C11.9799 7.13974 12.6972 7.34911 13.3073 7.74138C13.9174 8.13364 14.3929 8.69119 14.6736 9.3435C14.9544 9.99582 15.0279 10.7136 14.8848 11.4061C14.7416 12.0986 14.3883 12.7347 13.8694 13.2339C13.3506 13.7332 12.6896 14.0732 11.9699 14.211C11.2503 14.3487 10.5044 14.278 9.82648 14.0078C9.14859 13.7376 8.56919 13.28 8.16155 12.693C7.7539 12.1059 7.53632 11.4157 7.53632 10.7096C7.53738 9.76316 7.92857 8.85573 8.62408 8.18646C9.31958 7.51719 10.2626 7.14075 11.2462 7.13974ZM11.2462 5.35503C10.1456 5.35503 9.06977 5.66907 8.15469 6.25744C7.23961 6.84582 6.52639 7.68209 6.10522 8.66052C5.68405 9.63895 5.57386 10.7156 5.78856 11.7543C6.00327 12.793 6.53324 13.7471 7.31146 14.4959C8.08967 15.2448 9.08118 15.7548 10.1606 15.9614C11.24 16.168 12.3589 16.0619 13.3756 15.6567C14.3924 15.2514 15.2615 14.5651 15.8729 13.6845C16.4844 12.8039 16.8107 11.7687 16.8107 10.7096C16.8107 9.28951 16.2245 7.92754 15.1809 6.92336C14.1374 5.91917 12.722 5.35503 11.2462 5.35503Z" fill="#FF8C92"/>
</svg>
